<?xml version="1.0" encoding="UTF-8" standalone="no"?>
<svg
   xmlns:dc="http://purl.org/dc/elements/1.1/"
   xmlns:cc="http://creativecommons.org/ns#"
   xmlns:rdf="http://www.w3.org/1999/02/22-rdf-syntax-ns#"
   xmlns:svg="http://www.w3.org/2000/svg"
   xmlns="http://www.w3.org/2000/svg"
   xmlns:sodipodi="http://sodipodi.sourceforge.net/DTD/sodipodi-0.dtd"
   xmlns:inkscape="http://www.inkscape.org/namespaces/inkscape"
   version="1.1"
   viewBox="0 0 32 32"
   id="svg8"
   sodipodi:docname="gruvbox-radio-checked-active.svg"
   width="32"
   height="32"
   inkscape:version="1.0.2 (e86c870879, 2021-01-15, custom)"
   inkscape:export-filename="/home/eleuth/.config/smplayer/themes/Gruvbox/rc/radio_unchecked.png"
   inkscape:export-xdpi="96"
   inkscape:export-ydpi="96">
  <metadata
     id="metadata14">
    <rdf:RDF>
      <cc:Work
         rdf:about="">
        <dc:format>image/svg+xml</dc:format>
        <dc:type
           rdf:resource="http://purl.org/dc/dcmitype/StillImage" />
        <dc:title></dc:title>
      </cc:Work>
    </rdf:RDF>
  </metadata>
  <defs
     id="defs12" />
  <sodipodi:namedview
     pagecolor="#ffffff"
     bordercolor="#666666"
     borderopacity="1"
     objecttolerance="10"
     gridtolerance="10"
     guidetolerance="10"
     inkscape:pageopacity="0"
     inkscape:pageshadow="2"
     inkscape:window-width="902"
     inkscape:window-height="640"
     id="namedview10"
     showgrid="true"
     inkscape:zoom="11.733553"
     inkscape:cx="16"
     inkscape:cy="16"
     inkscape:window-x="1018"
     inkscape:window-y="440"
     inkscape:window-maximized="0"
     inkscape:current-layer="svg8"
     inkscape:document-rotation="0">
    <inkscape:grid
       type="xygrid"
       id="grid16" />
  </sodipodi:namedview>
  <path
     class="warning"
     d="M 29.333125,16 A 13.333125,13.333125 0 0 1 16,29.333125 13.333125,13.333125 0 0 1 2.666875,16 13.333125,13.333125 0 0 1 16,2.666875 13.333125,13.333125 0 0 1 29.333125,16 Z"
     fill="#fe8019"
     id="path2"
     style="opacity:0;fill:#282828;fill-opacity:1;stroke-width:1.77775" />
  <path
     class="error"
     d="M 16,1.778 A 14.222,14.222 0 0 0 1.778,16 14.222,14.222 0 0 0 16,30.222 14.222,14.222 0 0 0 30.222,16 14.222,14.222 0 0 0 16,1.778 Z m 0,1.77775 A 12.44425,12.44425 0 0 1 28.44425,16 12.44425,12.44425 0 0 1 16,28.44425 12.44425,12.44425 0 0 1 3.55575,16 12.44425,12.44425 0 0 1 16,3.55575 Z"
     fill="#d65d0e"
     id="path4"
     style="fill:#ebdbb2;fill-opacity:1;stroke-width:1.77775" />
  <path
     class="error"
     d="m 16,7.11125 c -4.909121,0 -8.88875,3.979629 -8.88875,8.88875 0,4.909121 3.979629,8.88875 8.88875,8.88875 4.909121,0 8.88875,-3.979629 8.88875,-8.88875 0,-4.909121 -3.979629,-8.88875 -8.88875,-8.88875 z"
     color="#282828"
     color-rendering="auto"
     dominant-baseline="auto"
     fill="#d65d0e"
     image-rendering="auto"
     shape-rendering="auto"
     solid-color="#282828"
     stroke-width="7.09375"
     style="font-variant-ligatures:normal;font-variant-position:normal;font-variant-caps:normal;font-variant-numeric:normal;font-variant-alternates:normal;font-feature-settings:normal;text-indent:0;text-decoration:none;text-decoration-line:none;text-decoration-style:solid;text-decoration-color:#282828;text-transform:none;text-orientation:mixed;white-space:normal;shape-padding:0;isolation:auto;mix-blend-mode:normal;fill:#ebdbb2;fill-opacity:1"
     id="path6"
     sodipodi:nodetypes="sssss" />
</svg>
