<?xml version="1.0" encoding="UTF-8" standalone="no"?>
<svg
   xmlns:dc="http://purl.org/dc/elements/1.1/"
   xmlns:cc="http://creativecommons.org/ns#"
   xmlns:rdf="http://www.w3.org/1999/02/22-rdf-syntax-ns#"
   xmlns:svg="http://www.w3.org/2000/svg"
   xmlns="http://www.w3.org/2000/svg"
   xmlns:sodipodi="http://sodipodi.sourceforge.net/DTD/sodipodi-0.dtd"
   xmlns:inkscape="http://www.inkscape.org/namespaces/inkscape"
   width="64"
   height="64"
   version="1.1"
   id="svg8"
   sodipodi:docname="audio_cd.svg"
   inkscape:version="1.0.2 (e86c870879, 2021-01-15, custom)"
   inkscape:export-filename="/home/eleuth/.config/smplayer/themes/Gruvbox/bluray.png"
   inkscape:export-xdpi="96"
   inkscape:export-ydpi="96">
  <metadata
     id="metadata14">
    <rdf:RDF>
      <cc:Work
         rdf:about="">
        <dc:format>image/svg+xml</dc:format>
        <dc:type
           rdf:resource="http://purl.org/dc/dcmitype/StillImage" />
        <dc:title />
      </cc:Work>
    </rdf:RDF>
  </metadata>
  <defs
     id="defs12" />
  <sodipodi:namedview
     pagecolor="#ffffff"
     bordercolor="#666666"
     borderopacity="1"
     objecttolerance="10"
     gridtolerance="10"
     guidetolerance="10"
     inkscape:pageopacity="0"
     inkscape:pageshadow="2"
     inkscape:window-width="1920"
     inkscape:window-height="1060"
     id="namedview10"
     showgrid="true"
     inkscape:zoom="7.6415735"
     inkscape:cx="49.424599"
     inkscape:cy="25.109667"
     inkscape:window-x="0"
     inkscape:window-y="20"
     inkscape:window-maximized="1"
     inkscape:current-layer="svg8"
     inkscape:document-rotation="0">
    <inkscape:grid
       type="xygrid"
       id="grid16" />
  </sodipodi:namedview>
  <g
     transform="matrix(4.0000019,0,0,4.0000019,-1088.0005,-640.00032)"
     id="g6">
    <path
       d="m 280,160 a 8,8 0 0 0 -8,8 8,8 0 0 0 8,8 8,8 0 0 0 8,-8 8,8 0 0 0 -8,-8 z m 0,1 a 7,7 0 0 1 7,7 7,7 0 0 1 -7,7 7,7 0 0 1 -7,-7 7,7 0 0 1 7,-7 z"
       style="fill:#ebdbb2"
       id="path4" />
  </g>
  <g
     transform="matrix(4.0666972,0,0,4.0666972,-1946.6598,-714.18071)"
     id="g4">
    <path
       style="fill:#ebdbb2;stroke-width:0.494328"
       d="m 489.03929,179.72053 c -0.057,-0.004 -0.12383,8.4e-4 -0.20275,0.008 l -3.56361,0.55612 c -0.40205,0.0409 -0.44577,0.2286 -0.44219,0.46247 v 4.70576 c -0.20434,-0.13423 -0.42303,-0.22978 -0.71446,-0.22978 -0.37525,0 -0.59927,0.14384 -0.73474,0.3331 -0.13545,0.18925 -0.18054,0.42771 -0.18054,0.61211 0,0.22237 0.0767,0.45927 0.24137,0.64012 0.1647,0.18085 0.41797,0.30798 0.78204,0.30799 0.41114,0 0.69967,-0.11468 0.86315,-0.33889 0.12872,-0.17652 0.20052,-0.41293 0.22592,-0.70384 0.003,-0.0353 0.006,-0.0717 0.008,-0.10909 0.002,-0.0296 0.002,-0.0504 0.002,-0.085 h 0.002 v -3.80787 c 0.0109,-0.30618 0.28867,-0.35143 0.28867,-0.35143 l 2.89356,-0.45185 c 0.27778,-0.0849 0.27806,0.25874 0.27806,0.25874 v 3.43134 c -0.20434,-0.13424 -0.42303,-0.22978 -0.71446,-0.22979 -0.37524,0 -0.59926,0.14384 -0.73473,0.33309 -0.13546,0.18925 -0.18055,0.42772 -0.18055,0.61213 0,0.22236 0.0767,0.45925 0.24138,0.64011 0.1647,0.18086 0.41795,0.30798 0.78204,0.30799 0.41113,0 0.69966,-0.11467 0.86314,-0.33888 0.12872,-0.17653 0.20053,-0.41294 0.22593,-0.70384 0.003,-0.0353 0.006,-0.0717 0.008,-0.10911 0.002,-0.0296 0.002,-0.0503 0.002,-0.085 h 0.002 v -5.22424 c 0.006,-0.33893 -0.0695,-0.42818 -0.2404,-0.44025 z"
       id="path2-3" />
  </g>
</svg>
