<?xml version="1.0" encoding="UTF-8" standalone="no"?>
<svg
   xmlns:dc="http://purl.org/dc/elements/1.1/"
   xmlns:cc="http://creativecommons.org/ns#"
   xmlns:rdf="http://www.w3.org/1999/02/22-rdf-syntax-ns#"
   xmlns:svg="http://www.w3.org/2000/svg"
   xmlns="http://www.w3.org/2000/svg"
   xmlns:sodipodi="http://sodipodi.sourceforge.net/DTD/sodipodi-0.dtd"
   xmlns:inkscape="http://www.inkscape.org/namespaces/inkscape"
   width="64"
   height="64"
   version="1.1"
   id="svg4"
   sodipodi:docname="cast.svg"
   inkscape:version="1.0.2 (e86c870879, 2021-01-15, custom)"
   inkscape:export-filename="/home/eleuth/.config/smplayer/themes/Gruvbox/cast.png"
   inkscape:export-xdpi="96"
   inkscape:export-ydpi="96">
  <metadata
     id="metadata10">
    <rdf:RDF>
      <cc:Work
         rdf:about="">
        <dc:format>image/svg+xml</dc:format>
        <dc:type
           rdf:resource="http://purl.org/dc/dcmitype/StillImage" />
        <dc:title></dc:title>
      </cc:Work>
    </rdf:RDF>
  </metadata>
  <defs
     id="defs8" />
  <sodipodi:namedview
     pagecolor="#ffffff"
     bordercolor="#666666"
     borderopacity="1"
     objecttolerance="10"
     gridtolerance="10"
     guidetolerance="10"
     inkscape:pageopacity="0"
     inkscape:pageshadow="2"
     inkscape:window-width="1376"
     inkscape:window-height="1060"
     id="namedview6"
     showgrid="true"
     inkscape:zoom="14.859375"
     inkscape:cx="32"
     inkscape:cy="32"
     inkscape:window-x="544"
     inkscape:window-y="20"
     inkscape:window-maximized="0"
     inkscape:current-layer="svg4"
     inkscape:document-rotation="0">
    <inkscape:grid
       type="xygrid"
       id="grid12" />
  </sodipodi:namedview>
  <path
     style="fill:#ebdbb2;stroke-width:4"
     class="ColorScheme-Text"
     d="M 0,32 C 0,14.32688 14.32688,0 32,0 49.673199,0 64,14.32688 64,32 H 56 C 56,18.74516 45.254801,8 32,8 18.74516,8 8,18.74516 8,32 8,45.254801 18.74516,56 32,56 v 8 C 14.32688,64 0,49.673199 0,32 Z M 32,51.2 C 21.39612,51.2 12.8,42.604 12.8,32 12.8,21.39612 21.39612,12.8 32,12.8 c 10.604,0 19.2,8.59612 19.2,19.2 h -6.981999 c 0,-6.74792 -5.47008,-12.2182 -12.218001,-12.2182 -6.74792,0 -12.2182,5.47028 -12.2182,12.2182 0,6.747921 5.47028,12.218001 12.2182,12.218001 z"
     id="path2" />
</svg>
