<?xml version="1.0" encoding="UTF-8" standalone="no"?>
<svg
   xmlns:dc="http://purl.org/dc/elements/1.1/"
   xmlns:cc="http://creativecommons.org/ns#"
   xmlns:rdf="http://www.w3.org/1999/02/22-rdf-syntax-ns#"
   xmlns:svg="http://www.w3.org/2000/svg"
   xmlns="http://www.w3.org/2000/svg"
   xmlns:sodipodi="http://sodipodi.sourceforge.net/DTD/sodipodi-0.dtd"
   xmlns:inkscape="http://www.inkscape.org/namespaces/inkscape"
   width="64"
   height="64"
   version="1.1"
   id="svg4"
   sodipodi:docname="chromecast.svg"
   inkscape:version="1.0.2 (e86c870879, 2021-01-15, custom)">
  <metadata
     id="metadata10">
    <rdf:RDF>
      <cc:Work
         rdf:about="">
        <dc:format>image/svg+xml</dc:format>
        <dc:type
           rdf:resource="http://purl.org/dc/dcmitype/StillImage" />
        <dc:title></dc:title>
      </cc:Work>
    </rdf:RDF>
  </metadata>
  <defs
     id="defs8" />
  <sodipodi:namedview
     pagecolor="#ffffff"
     bordercolor="#666666"
     borderopacity="1"
     objecttolerance="10"
     gridtolerance="10"
     guidetolerance="10"
     inkscape:pageopacity="0"
     inkscape:pageshadow="2"
     inkscape:window-width="1376"
     inkscape:window-height="1060"
     id="namedview6"
     showgrid="true"
     inkscape:zoom="8"
     inkscape:cx="35.057647"
     inkscape:cy="24.789262"
     inkscape:window-x="544"
     inkscape:window-y="20"
     inkscape:window-maximized="0"
     inkscape:current-layer="svg4"
     inkscape:document-rotation="0">
    <inkscape:grid
       type="xygrid"
       id="grid12" />
  </sodipodi:namedview>
  <path
     style="fill:#ebdbb2;stroke-width:4.13721"
     d="m 8.0443009,8.090665 c -3.4814958,0 -5.0430877,1.5615669 -5.0430877,5.043088 V 23.219929 H 8.0443009 V 13.133753 H 55.953635 V 50.956917 H 35.781283 V 56 h 20.172352 c 3.481497,0 5.04309,-1.561565 5.04309,-5.043083 V 13.133753 c 0,-3.4814961 -1.561569,-5.043088 -5.04309,-5.043088 z M 3.0012132,28.263017 v 5.043089 C 15.5348,33.306106 25.695109,43.466412 25.695109,56 h 5.04309 c 0,-15.318631 -12.418354,-27.736983 -27.7369858,-27.736983 z m 0,10.086173 v 5.043093 c 6.9629916,0 12.6077208,5.644725 12.6077208,12.607717 h 5.043087 c 0,-9.74829 -7.902519,-17.65081 -17.6508078,-17.65081 z m 0,10.086176 V 56 h 7.5646318 c 0,-4.177943 -3.3866858,-7.564634 -7.5646318,-7.564634 z"
     id="path2" />
</svg>
