<?xml version="1.0" encoding="UTF-8" standalone="no"?>
<svg
   xmlns:dc="http://purl.org/dc/elements/1.1/"
   xmlns:cc="http://creativecommons.org/ns#"
   xmlns:rdf="http://www.w3.org/1999/02/22-rdf-syntax-ns#"
   xmlns:svg="http://www.w3.org/2000/svg"
   xmlns="http://www.w3.org/2000/svg"
   xmlns:sodipodi="http://sodipodi.sourceforge.net/DTD/sodipodi-0.dtd"
   xmlns:inkscape="http://www.inkscape.org/namespaces/inkscape"
   width="64"
   height="64"
   version="1.1"
   id="svg4"
   sodipodi:docname="close.svg"
   inkscape:version="1.0.2 (e86c870879, 2021-01-15, custom)"
   inkscape:export-filename="/home/eleuth/.config/smplayer/themes/Gruvbox/close.png"
   inkscape:export-xdpi="96"
   inkscape:export-ydpi="96">
  <metadata
     id="metadata10">
    <rdf:RDF>
      <cc:Work
         rdf:about="">
        <dc:format>image/svg+xml</dc:format>
        <dc:type
           rdf:resource="http://purl.org/dc/dcmitype/StillImage" />
        <dc:title />
      </cc:Work>
    </rdf:RDF>
  </metadata>
  <defs
     id="defs8" />
  <sodipodi:namedview
     pagecolor="#ffffff"
     bordercolor="#666666"
     borderopacity="1"
     objecttolerance="10"
     gridtolerance="10"
     guidetolerance="10"
     inkscape:pageopacity="0"
     inkscape:pageshadow="2"
     inkscape:window-width="1376"
     inkscape:window-height="1060"
     id="namedview6"
     showgrid="true"
     inkscape:zoom="6.9948237"
     inkscape:cx="37.486366"
     inkscape:cy="16.618183"
     inkscape:window-x="544"
     inkscape:window-y="20"
     inkscape:window-maximized="0"
     inkscape:current-layer="svg4"
     inkscape:document-rotation="0">
    <inkscape:grid
       type="xygrid"
       id="grid12" />
  </sodipodi:namedview>
  <path
     style="fill:#ebdbb2;stroke-width:4.24729"
     d="m 44.726478,14.980482 a 4.2473123,4.2473123 0 0 0 -3.002984,1.244329 L 31.98454,25.963768 22.287063,16.26629 a 4.2473123,4.2473123 0 0 0 -0.04148,-0.04148 4.2473123,4.2473123 0 0 0 -2.978094,-1.227739 l -0.04148,0.05807 a 4.2473123,4.2473123 0 0 0 -4.247313,4.24731 4.2473123,4.2473123 0 0 0 1.244328,3.002983 l 9.738967,9.738951 -9.738955,9.738953 a 4.2473123,4.2473123 0 0 0 -1.227737,2.969803 4.2473123,4.2473123 0 0 0 4.24731,4.247315 4.2473123,4.2473123 0 0 0 3.002983,-1.244334 l 9.738958,-9.738946 9.697474,9.697475 a 4.2473123,4.2473123 0 0 0 3.044464,1.285811 4.2473123,4.2473123 0 0 0 4.247309,-4.247314 4.2473123,4.2473123 0 0 0 -1.244324,-3.002983 l -9.772142,-9.76384 9.697474,-9.697476 a 4.2473123,4.2473123 0 0 0 1.318988,-3.061054 4.2473123,4.2473123 0 0 0 -4.247309,-4.247312 z"
     id="path2" />
</svg>
