<?xml version="1.0" encoding="UTF-8" standalone="no"?>
<svg
   xmlns:dc="http://purl.org/dc/elements/1.1/"
   xmlns:cc="http://creativecommons.org/ns#"
   xmlns:rdf="http://www.w3.org/1999/02/22-rdf-syntax-ns#"
   xmlns:svg="http://www.w3.org/2000/svg"
   xmlns="http://www.w3.org/2000/svg"
   xmlns:sodipodi="http://sodipodi.sourceforge.net/DTD/sodipodi-0.dtd"
   xmlns:inkscape="http://www.inkscape.org/namespaces/inkscape"
   width="64"
   height="64"
   version="1.1"
   id="svg20"
   sodipodi:docname="compact.svg"
   inkscape:version="1.0.2 (e86c870879, 2021-01-15, custom)">
  <metadata
     id="metadata26">
    <rdf:RDF>
      <cc:Work
         rdf:about="">
        <dc:format>image/svg+xml</dc:format>
        <dc:type
           rdf:resource="http://purl.org/dc/dcmitype/StillImage" />
        <dc:title></dc:title>
      </cc:Work>
    </rdf:RDF>
  </metadata>
  <defs
     id="defs24" />
  <sodipodi:namedview
     pagecolor="#ffffff"
     bordercolor="#666666"
     borderopacity="1"
     objecttolerance="10"
     gridtolerance="10"
     guidetolerance="10"
     inkscape:pageopacity="0"
     inkscape:pageshadow="2"
     inkscape:window-width="1376"
     inkscape:window-height="1060"
     id="namedview22"
     showgrid="true"
     inkscape:zoom="8"
     inkscape:cx="43.439632"
     inkscape:cy="24.08048"
     inkscape:window-x="544"
     inkscape:window-y="20"
     inkscape:window-maximized="0"
     inkscape:current-layer="svg20"
     inkscape:document-rotation="0">
    <inkscape:grid
       type="xygrid"
       id="grid28" />
  </sodipodi:namedview>
  <path
     id="path2"
     style="fill:#ebdbb2;stroke-width:4.49748"
     d="M 6.7168904,5 C 5.7825359,5 5.0303301,5.7522058 5.0303301,6.6865603 V 16.805922 c 0,0.934354 0.7522058,1.68656 1.6865603,1.68656 H 16.836251 c 0.934354,0 1.686561,-0.752206 1.686561,-1.68656 V 6.6865603 C 18.522812,5.7522058 17.770605,5 16.836251,5 Z M 26.955612,5 C 26.021258,5 25.269053,5.7522058 25.269053,6.6865603 V 16.805922 c 0,0.934354 0.752205,1.68656 1.686559,1.68656 h 10.119363 c 0.934354,0 1.68656,-0.752206 1.68656,-1.68656 V 6.6865603 C 38.761535,5.7522058 38.009329,5 37.074975,5 Z m 20.238724,0 c -0.930981,0 -1.68656,0.7522058 -1.68656,1.6865603 V 16.805922 c 0,0.934354 0.755579,1.68656 1.68656,1.68656 h 10.119361 c 0.937727,0 1.686561,-0.752206 1.686561,-1.68656 V 6.6865603 C 59.000258,5.7522058 58.251424,5 57.313697,5 Z M 6.7168904,25.238723 c -0.9343545,0 -1.6865603,0.752206 -1.6865603,1.68656 v 10.119362 c 0,0.934354 0.7522058,1.68656 1.6865603,1.68656 H 16.836251 c 0.934354,0 1.686561,-0.752206 1.686561,-1.68656 V 26.925283 c 0,-0.934354 -0.752207,-1.68656 -1.686561,-1.68656 z m 20.2387216,0 c -0.934354,0 -1.686559,0.752206 -1.686559,1.68656 v 10.119362 c 0,0.934354 0.752205,1.68656 1.686559,1.68656 h 10.119363 c 0.934354,0 1.68656,-0.752206 1.68656,-1.68656 V 26.925283 c 0,-0.934354 -0.752206,-1.68656 -1.68656,-1.68656 z m 20.238724,0 c -0.930981,0 -1.68656,0.752206 -1.68656,1.68656 v 10.119362 c 0,0.934354 0.755579,1.68656 1.68656,1.68656 h 10.119361 c 0.937727,0 1.686561,-0.752206 1.686561,-1.68656 V 26.925283 c 0,-0.934354 -0.748834,-1.68656 -1.686561,-1.68656 z M 6.7168904,45.477446 c -0.9343545,0 -1.6865603,0.755579 -1.6865603,1.68656 v 10.119361 c 0,0.937728 0.7522058,1.686561 1.6865603,1.686561 H 16.836251 c 0.934354,0 1.686561,-0.748833 1.686561,-1.686561 V 47.164006 c 0,-0.930981 -0.752207,-1.68656 -1.686561,-1.68656 z m 20.2387216,0 c -0.934354,0 -1.686559,0.755579 -1.686559,1.68656 v 10.119361 c 0,0.937728 0.752205,1.686561 1.686559,1.686561 h 10.119363 c 0.934354,0 1.68656,-0.748833 1.68656,-1.686561 V 47.164006 c 0,-0.930981 -0.752206,-1.68656 -1.68656,-1.68656 z m 20.238724,0 c -0.930981,0 -1.68656,0.755579 -1.68656,1.68656 v 10.119361 c 0,0.937728 0.755579,1.686561 1.68656,1.686561 h 10.119361 c 0.937727,0 1.686561,-0.748833 1.686561,-1.686561 V 47.164006 c 0,-0.930981 -0.748834,-1.68656 -1.686561,-1.68656 z" />
</svg>
