<?xml version="1.0" encoding="UTF-8" standalone="no"?>
<svg
   xmlns:dc="http://purl.org/dc/elements/1.1/"
   xmlns:cc="http://creativecommons.org/ns#"
   xmlns:rdf="http://www.w3.org/1999/02/22-rdf-syntax-ns#"
   xmlns:svg="http://www.w3.org/2000/svg"
   xmlns="http://www.w3.org/2000/svg"
   xmlns:sodipodi="http://sodipodi.sourceforge.net/DTD/sodipodi-0.dtd"
   xmlns:inkscape="http://www.inkscape.org/namespaces/inkscape"
   width="64"
   height="64"
   version="1.1"
   id="svg4"
   sodipodi:docname="copy.svg"
   inkscape:version="1.0.2 (e86c870879, 2021-01-15, custom)"
   inkscape:export-filename="/home/eleuth/.config/smplayer/themes/Gruvbox/copy.png"
   inkscape:export-xdpi="96"
   inkscape:export-ydpi="96">
  <metadata
     id="metadata10">
    <rdf:RDF>
      <cc:Work
         rdf:about="">
        <dc:format>image/svg+xml</dc:format>
        <dc:type
           rdf:resource="http://purl.org/dc/dcmitype/StillImage" />
        <dc:title></dc:title>
        <dc:title />
      </cc:Work>
    </rdf:RDF>
  </metadata>
  <defs
     id="defs8" />
  <sodipodi:namedview
     pagecolor="#ffffff"
     bordercolor="#666666"
     borderopacity="1"
     objecttolerance="10"
     gridtolerance="10"
     guidetolerance="10"
     inkscape:pageopacity="0"
     inkscape:pageshadow="2"
     inkscape:window-width="1376"
     inkscape:window-height="1060"
     id="namedview6"
     showgrid="true"
     inkscape:zoom="8"
     inkscape:cx="29.564761"
     inkscape:cy="18.978076"
     inkscape:window-x="544"
     inkscape:window-y="20"
     inkscape:window-maximized="0"
     inkscape:current-layer="svg4"
     inkscape:document-rotation="0">
    <inkscape:grid
       type="xygrid"
       id="grid12" />
  </sodipodi:namedview>
  <path
     style="fill:#ebdbb2;stroke-width:3.93354"
     d="m 11.799221,5 c 0,0 -3.9335496,0 -3.9335496,3.9335502 V 44.335498 c 0,0 0,3.933551 3.9335496,3.933551 h 3.93355 v -35.40195 h 31.4684 V 8.9335502 C 47.201171,5 43.267622,5 43.267622,5 Z M 23.59987,16.800648 c 0,0 -3.93355,0 -3.93355,3.93355 v 39.335501 c 0,3.933548 3.93355,3.933548 3.93355,3.933548 h 31.468401 c 0,0 3.933549,-0.0039 3.933549,-3.948913 V 20.734198 c 0,-3.93355 -3.933549,-3.93355 -3.933549,-3.93355 z m 3.933551,7.867099 H 51.134719 V 56.136146 H 27.533421 Z"
     id="path2" />
</svg>
