<?xml version="1.0" encoding="UTF-8" standalone="no"?>
<svg
   xmlns:dc="http://purl.org/dc/elements/1.1/"
   xmlns:cc="http://creativecommons.org/ns#"
   xmlns:rdf="http://www.w3.org/1999/02/22-rdf-syntax-ns#"
   xmlns:svg="http://www.w3.org/2000/svg"
   xmlns="http://www.w3.org/2000/svg"
   xmlns:sodipodi="http://sodipodi.sourceforge.net/DTD/sodipodi-0.dtd"
   xmlns:inkscape="http://www.inkscape.org/namespaces/inkscape"
   width="64"
   height="64"
   version="1.1"
   id="svg6"
   sodipodi:docname="deinterlace.svg"
   inkscape:export-filename="/home/eleuth/.config/smplayer/themes/Gruvbox/video_track.png"
   inkscape:export-xdpi="96"
   inkscape:export-ydpi="96"
   inkscape:version="1.0.2 (e86c870879, 2021-01-15, custom)">
  <metadata
     id="metadata12">
    <rdf:RDF>
      <cc:Work
         rdf:about="">
        <dc:format>image/svg+xml</dc:format>
        <dc:type
           rdf:resource="http://purl.org/dc/dcmitype/StillImage" />
        <dc:title />
      </cc:Work>
    </rdf:RDF>
  </metadata>
  <defs
     id="defs10" />
  <sodipodi:namedview
     pagecolor="#ffffff"
     bordercolor="#666666"
     borderopacity="1"
     objecttolerance="10"
     gridtolerance="10"
     guidetolerance="10"
     inkscape:pageopacity="0"
     inkscape:pageshadow="2"
     inkscape:window-width="1051"
     inkscape:window-height="736"
     id="namedview8"
     showgrid="true"
     inkscape:zoom="8.0985824"
     inkscape:cx="22.869736"
     inkscape:cy="31.822939"
     inkscape:window-x="0"
     inkscape:window-y="344"
     inkscape:window-maximized="0"
     inkscape:current-layer="svg6"
     inkscape:document-rotation="0">
    <inkscape:grid
       type="xygrid"
       id="grid14" />
  </sodipodi:namedview>
  <g
     transform="matrix(3.599999,0,0,3.599999,-1913.7995,-646.59983)"
     id="g4">
    <path
       d="m 533,182.00001 v 13 l 1,-1e-5 v -1 l 1,1e-5 v 3.3e-4 0.99967 h 1 9 1 V 194.00033 194 h 1 v 1 h 1 v -13 h -1 v 1 h -1 V 182.99967 182 h -10 -1 v 0.99967 3.4e-4 L 534,183 v -1 z M 536,183 h 9 v 5 h -9 z m -2,1 1,1e-5 v 1 L 534,185 Z m 12,1e-5 h 1 v 1 h -1 z M 534,186 l 1,1e-5 v 1 L 534,187 Z m 12,1e-5 h 1 v 1 h -1 z M 534,188 l 1,1e-5 v 0.16667 0.66634 0.16699 L 534,189 Z m 12,1e-5 h 1 v 1 h -1 z M 536,189 h 9 v 5 h -9 z m -2,1 1,1e-5 v 1 L 534,191 Z m 12,1e-5 h 1 v 1 h -1 z M 534,192 l 1,1e-5 v 1 L 534,193 Z m 12,1e-5 h 1 v 1 h -1 z"
       style="fill:#ebdbb2"
       id="path2" />
  </g>
</svg>
