<?xml version="1.0" encoding="UTF-8" standalone="no"?>
<svg
   xmlns:dc="http://purl.org/dc/elements/1.1/"
   xmlns:cc="http://creativecommons.org/ns#"
   xmlns:rdf="http://www.w3.org/1999/02/22-rdf-syntax-ns#"
   xmlns:svg="http://www.w3.org/2000/svg"
   xmlns="http://www.w3.org/2000/svg"
   xmlns:sodipodi="http://sodipodi.sourceforge.net/DTD/sodipodi-0.dtd"
   xmlns:inkscape="http://www.inkscape.org/namespaces/inkscape"
   width="64"
   height="64"
   version="1.1"
   id="svg4"
   sodipodi:docname="donate.svg"
   inkscape:version="1.0.2 (e86c870879, 2021-01-15, custom)"
   inkscape:export-filename="/home/eleuth/.config/smplayer/themes/Gruvbox/donate.png"
   inkscape:export-xdpi="96"
   inkscape:export-ydpi="96">
  <metadata
     id="metadata10">
    <rdf:RDF>
      <cc:Work
         rdf:about="">
        <dc:format>image/svg+xml</dc:format>
        <dc:type
           rdf:resource="http://purl.org/dc/dcmitype/StillImage" />
        <dc:title></dc:title>
      </cc:Work>
    </rdf:RDF>
  </metadata>
  <defs
     id="defs8" />
  <sodipodi:namedview
     pagecolor="#ffffff"
     bordercolor="#666666"
     borderopacity="1"
     objecttolerance="10"
     gridtolerance="10"
     guidetolerance="10"
     inkscape:pageopacity="0"
     inkscape:pageshadow="2"
     inkscape:window-width="1376"
     inkscape:window-height="1060"
     id="namedview6"
     showgrid="true"
     inkscape:zoom="8.0985824"
     inkscape:cx="35.740618"
     inkscape:cy="30.342517"
     inkscape:window-x="544"
     inkscape:window-y="20"
     inkscape:window-maximized="0"
     inkscape:current-layer="svg4">
    <inkscape:grid
       type="xygrid"
       id="grid12" />
  </sodipodi:namedview>
  <path
     style="fill:#ebdbb2;stroke-width:3.99943"
     d="m 32.001449,4.0104122 c -15.461783,0 -27.9959857,12.5346028 -27.9959857,27.9959858 0,15.462183 12.5342027,27.995987 27.9959857,27.995987 15.461784,0 27.995987,-12.533804 27.995987,-27.995987 0,-15.461383 -12.534203,-27.9959858 -27.995987,-27.9959858 z m -0.999857,9.3345998 h 2.991759 v 4.24939 c 1.879732,0.21597 3.593299,1.175895 4.757131,2.663681 1.063848,1.331809 1.9216,3.521558 1.9216,5.913215 h -5.678874 c 0,-1.331809 -0.214158,-2.691801 -0.742081,-3.491687 -0.535924,-0.799885 -1.103904,-0.835818 -2.163753,-0.835818 -0.803884,0 -1.563713,0.278084 -1.835674,1.07797 -0.379946,0.839881 -0.581853,1.751624 -0.585853,2.671492 0,0.799886 0.313891,1.635829 0.585853,2.163753 0.527925,0.535923 1.331872,1.281754 2.663681,2.085639 2.667618,1.063847 4.521289,2.167689 5.585137,3.499498 1.331809,1.335808 1.827862,3.181668 1.827862,5.577325 0,2.135695 -0.496053,3.999364 -1.827862,5.335172 -1.335809,1.331809 -2.949515,2.149567 -5.085209,2.421529 v 3.999426 h -2.663681 v -3.999426 c -2.135694,-0.271962 -4.003363,-1.067723 -5.335172,-2.671494 -1.331809,-1.331809 -2.085638,-3.477561 -2.085638,-6.413142 h 5.335172 c 0,1.603771 0.199971,2.949579 0.999857,3.749466 0.531924,0.799884 1.357679,1.335744 2.421527,1.335744 1.059849,0 1.631828,-0.28188 2.163753,-1.08578 0.531924,-0.531925 0.742081,-1.607646 0.742081,-2.671495 0,-1.063847 -0.214158,-1.863795 -0.742081,-2.66368 -0.535924,-0.535923 -1.361679,-1.303751 -2.421528,-1.835675 -2.667618,-1.059848 -4.499292,-2.163689 -5.835101,-3.499498 -1.331809,-1.33181 -1.905977,-3.181669 -1.905977,-5.577326 0,-2.131694 0.574168,-4.003363 1.905977,-5.335172 1.335809,-1.331809 2.867589,-2.413717 4.999284,-2.413717 z"
     id="path2" />
</svg>
