<?xml version="1.0" encoding="UTF-8" standalone="no"?>
<svg
   xmlns:dc="http://purl.org/dc/elements/1.1/"
   xmlns:cc="http://creativecommons.org/ns#"
   xmlns:rdf="http://www.w3.org/1999/02/22-rdf-syntax-ns#"
   xmlns:svg="http://www.w3.org/2000/svg"
   xmlns="http://www.w3.org/2000/svg"
   xmlns:sodipodi="http://sodipodi.sourceforge.net/DTD/sodipodi-0.dtd"
   xmlns:inkscape="http://www.inkscape.org/namespaces/inkscape"
   width="64"
   height="64"
   version="1.1"
   id="svg4"
   sodipodi:docname="exit.svg"
   inkscape:version="1.0.2 (e86c870879, 2021-01-15, custom)"
   inkscape:export-filename="/home/eleuth/.config/smplayer/themes/Gruvbox/exit.png"
   inkscape:export-xdpi="96"
   inkscape:export-ydpi="96">
  <metadata
     id="metadata10">
    <rdf:RDF>
      <cc:Work
         rdf:about="">
        <dc:format>image/svg+xml</dc:format>
        <dc:type
           rdf:resource="http://purl.org/dc/dcmitype/StillImage" />
        <dc:title></dc:title>
      </cc:Work>
    </rdf:RDF>
  </metadata>
  <defs
     id="defs8" />
  <sodipodi:namedview
     pagecolor="#ffffff"
     bordercolor="#666666"
     borderopacity="1"
     objecttolerance="10"
     gridtolerance="10"
     guidetolerance="10"
     inkscape:pageopacity="0"
     inkscape:pageshadow="2"
     inkscape:window-width="1376"
     inkscape:window-height="1060"
     id="namedview6"
     showgrid="true"
     inkscape:zoom="16.197165"
     inkscape:cx="30.77339"
     inkscape:cy="31.018369"
     inkscape:window-x="544"
     inkscape:window-y="20"
     inkscape:window-maximized="0"
     inkscape:current-layer="svg4">
    <inkscape:grid
       type="xygrid"
       id="grid12" />
  </sodipodi:namedview>
  <path
     style="fill:#ebdbb2;stroke-width:4.00008"
     d="M 0.58135974,32.200656 C 0.52935868,35.556724 1.0213687,38.892793 2.0373895,42.088857 6.193474,55.145123 18.317721,64.005304 32.018001,64.001304 45.718279,64.005304 57.846527,55.145123 62.002611,42.088857 66.118696,29.028591 61.270596,14.808302 50.046367,6.9761422 l -5.144105,7.3641498 c 8.032164,5.572114 11.492234,15.724321 8.536174,25.040511 -2.95606,9.328189 -11.632236,15.660319 -21.420435,15.636318 -9.7922,0.028 -18.464378,-6.304129 -21.424438,-15.636318 -2.9560594,-9.31619 0.508011,-19.468397 8.536175,-25.040511 L 13.989633,6.9761422 C 5.7294647,12.740259 0.73736292,22.12845 0.58135974,32.200656 Z M 27.529909,1.1240229 V 32.560663 h 8.980183 V 0 Z"
     id="path2" />
</svg>
