<?xml version="1.0" encoding="UTF-8" standalone="no"?>
<svg
   xmlns:dc="http://purl.org/dc/elements/1.1/"
   xmlns:cc="http://creativecommons.org/ns#"
   xmlns:rdf="http://www.w3.org/1999/02/22-rdf-syntax-ns#"
   xmlns:svg="http://www.w3.org/2000/svg"
   xmlns="http://www.w3.org/2000/svg"
   xmlns:sodipodi="http://sodipodi.sourceforge.net/DTD/sodipodi-0.dtd"
   xmlns:inkscape="http://www.inkscape.org/namespaces/inkscape"
   width="64"
   height="64"
   version="1.1"
   id="svg4"
   sodipodi:docname="find.svg"
   inkscape:version="1.0.2 (e86c870879, 2021-01-15, custom)"
   inkscape:export-filename="/home/eleuth/.config/smplayer/themes/Gruvbox/find.png"
   inkscape:export-xdpi="96"
   inkscape:export-ydpi="96">
  <metadata
     id="metadata10">
    <rdf:RDF>
      <cc:Work
         rdf:about="">
        <dc:format>image/svg+xml</dc:format>
        <dc:type
           rdf:resource="http://purl.org/dc/dcmitype/StillImage" />
        <dc:title></dc:title>
      </cc:Work>
    </rdf:RDF>
  </metadata>
  <defs
     id="defs8" />
  <sodipodi:namedview
     pagecolor="#ffffff"
     bordercolor="#666666"
     borderopacity="1"
     objecttolerance="10"
     gridtolerance="10"
     guidetolerance="10"
     inkscape:pageopacity="0"
     inkscape:pageshadow="2"
     inkscape:window-width="1376"
     inkscape:window-height="598"
     id="namedview6"
     showgrid="true"
     inkscape:zoom="11.453125"
     inkscape:cx="29.74086"
     inkscape:cy="30.152932"
     inkscape:window-x="544"
     inkscape:window-y="20"
     inkscape:window-maximized="0"
     inkscape:current-layer="svg4">
    <inkscape:grid
       type="xygrid"
       id="grid12" />
  </sodipodi:namedview>
  <path
     style="fill:#ebdbb2;stroke-width:3.973"
     d="m 26.865165,5 c 12.038196,0 21.970699,9.813314 21.970699,21.85151 0,4.568951 -1.549469,8.780334 -3.973001,12.276575 L 60,54.265222 54.398067,59.986344 39.260931,44.849207 C 35.764689,47.272739 31.434117,48.703019 26.865165,48.703019 14.82697,48.703019 5.0136562,38.889705 5.0136562,26.85151 5.0136562,14.813314 14.82697,5 26.865165,5 Z m 0,7.946003 c -7.747353,0 -13.905506,6.197883 -13.905506,13.905507 0,7.707623 6.158153,13.905506 13.905506,13.905506 7.747354,0 13.905506,-6.197883 13.905506,-13.905506 0,-7.707624 -6.158152,-13.905507 -13.905506,-13.905507 z"
     id="path2" />
</svg>
