<?xml version="1.0" encoding="UTF-8" standalone="no"?>
<svg
   xmlns:dc="http://purl.org/dc/elements/1.1/"
   xmlns:cc="http://creativecommons.org/ns#"
   xmlns:rdf="http://www.w3.org/1999/02/22-rdf-syntax-ns#"
   xmlns:svg="http://www.w3.org/2000/svg"
   xmlns="http://www.w3.org/2000/svg"
   xmlns:sodipodi="http://sodipodi.sourceforge.net/DTD/sodipodi-0.dtd"
   xmlns:inkscape="http://www.inkscape.org/namespaces/inkscape"
   width="64"
   height="64"
   version="1.1"
   id="svg6"
   sodipodi:docname="folder_open.svg"
   inkscape:version="1.0.2 (e86c870879, 2021-01-15, custom)"
   inkscape:export-filename="/home/eleuth/.config/smplayer/themes/Gruvbox/folder_open.png"
   inkscape:export-xdpi="96"
   inkscape:export-ydpi="96">
  <metadata
     id="metadata12">
    <rdf:RDF>
      <cc:Work
         rdf:about="">
        <dc:format>image/svg+xml</dc:format>
        <dc:type
           rdf:resource="http://purl.org/dc/dcmitype/StillImage" />
        <dc:title></dc:title>
      </cc:Work>
    </rdf:RDF>
  </metadata>
  <defs
     id="defs10" />
  <sodipodi:namedview
     pagecolor="#ffffff"
     bordercolor="#666666"
     borderopacity="1"
     objecttolerance="10"
     gridtolerance="10"
     guidetolerance="10"
     inkscape:pageopacity="0"
     inkscape:pageshadow="2"
     inkscape:window-width="1376"
     inkscape:window-height="598"
     id="namedview8"
     showgrid="true"
     inkscape:zoom="11.313709"
     inkscape:cx="51.305039"
     inkscape:cy="27.573456"
     inkscape:window-x="544"
     inkscape:window-y="20"
     inkscape:window-maximized="0"
     inkscape:current-layer="svg6">
    <inkscape:grid
       type="xygrid"
       id="grid14" />
  </sodipodi:namedview>
  <g
     label="status"
     transform="matrix(3.9999655,0,0,3.9999655,-5011.9575,187.99841)"
     id="g4">
    <path
       fill="#ebdbb2"
       class="#458588"
       d="m 1256.9924,-46 c -1.257,0.0144 -2.1773,-0.0284 -2.9297,0.38672 -0.3764,0.20768 -0.6752,0.55747 -0.8398,0.99609 -0.1647,0.43862 -0.2227,0.9596 -0.2227,1.61719 v 8 c 0,0.65759 0.058,1.17857 0.2227,1.61719 0.1646,0.43862 0.4634,0.79036 0.8398,0.99804 0.7528,0.41535 1.6735,0.37023 2.9316,0.38477 h 0.01 8 0.01 c 1.2581,-0.0145 2.1788,0.0306 2.9316,-0.38477 0.3764,-0.20768 0.6753,-0.55942 0.8399,-0.99804 0.1558,-0.43862 0.2144,-0.9596 0.2144,-1.61719 v -3 -3 c 0,-0.65759 -0.058,-1.17857 -0.2227,-1.61719 -0.02,-0.0546 -0.048,-0.10399 -0.074,-0.15429 -0.01,-0.0185 -0.018,-0.038 -0.027,-0.0566 -0.1727,-0.33876 -0.4255,-0.61453 -0.7383,-0.78711 -0.7529,-0.41536 -1.6735,-0.37023 -2.9316,-0.38477 h -0.01 -3.0332 l -2.0215,-2 h -2.9473 z m 0,1 v 0 h 0.01 2.5293 l 2.0215,2 h 3.447 c 1.2822,0.0148 2.0319,0.0263 2.4551,0.25977 0.1178,0.065 0.2369,0.18454 0.3301,0.36718 -0.016,-0.0305 2e-4,0.0108 0.031,0.0645 0.01,0.0169 6e-4,0.002 0.01,0.0117 v 0.002 c 0.011,0.022 0.025,0.0525 0.018,0.0293 0.1001,0.26699 0.1582,0.66683 0.1582,1.26562 v 3 h -14.0024 v -5 c 0,-0.59878 0.058,-0.99856 0.1582,-1.26562 0.086,-0.22979 0.2302,-0.3863 0.3867,-0.47266 0.4234,-0.23354 1.1733,-0.24697 2.4492,-0.26172 z"
       id="path2" />
  </g>
</svg>
