<?xml version="1.0" encoding="UTF-8" standalone="no"?>
<svg
   xmlns:dc="http://purl.org/dc/elements/1.1/"
   xmlns:cc="http://creativecommons.org/ns#"
   xmlns:rdf="http://www.w3.org/1999/02/22-rdf-syntax-ns#"
   xmlns:svg="http://www.w3.org/2000/svg"
   xmlns="http://www.w3.org/2000/svg"
   xmlns:sodipodi="http://sodipodi.sourceforge.net/DTD/sodipodi-0.dtd"
   xmlns:inkscape="http://www.inkscape.org/namespaces/inkscape"
   style="isolation:isolate"
   width="64"
   height="64"
   viewBox="0 0 64 64"
   version="1.1"
   id="svg11"
   sodipodi:docname="hue.svg"
   inkscape:version="1.0.2 (e86c870879, 2021-01-15, custom)"
   inkscape:export-filename="/home/eleuth/.config/smplayer/themes/Gruvbox/hue.png"
   inkscape:export-xdpi="96"
   inkscape:export-ydpi="96">
  <metadata
     id="metadata15">
    <rdf:RDF>
      <cc:Work
         rdf:about="">
        <dc:format>image/svg+xml</dc:format>
        <dc:type
           rdf:resource="http://purl.org/dc/dcmitype/StillImage" />
        <dc:title></dc:title>
      </cc:Work>
    </rdf:RDF>
  </metadata>
  <sodipodi:namedview
     pagecolor="#ffffff"
     bordercolor="#666666"
     borderopacity="1"
     objecttolerance="10"
     gridtolerance="10"
     guidetolerance="10"
     inkscape:pageopacity="0"
     inkscape:pageshadow="2"
     inkscape:window-width="1376"
     inkscape:window-height="470"
     id="namedview13"
     showgrid="true"
     inkscape:zoom="11.453125"
     inkscape:cx="38.180234"
     inkscape:cy="36.018571"
     inkscape:window-x="544"
     inkscape:window-y="20"
     inkscape:window-maximized="0"
     inkscape:current-layer="svg11">
    <inkscape:grid
       type="xygrid"
       id="grid17" />
  </sodipodi:namedview>
  <defs
     id="defs5">
    <clipPath
       id="_clipPath_z2QLvsEOIVWv5LzoPYipgUzpNYLA0g8B">
      <rect
         width="16"
         height="16"
         id="rect2"
         x="0"
         y="0" />
    </clipPath>
  </defs>
  <g
     clip-path="url(#_clipPath_z2QLvsEOIVWv5LzoPYipgUzpNYLA0g8B)"
     id="g9"
     transform="matrix(3.7196174,0,0,3.7196174,2.1991281,2.4581587)">
    <path
       fill="#ebdbb2"
       fill-rule="evenodd"
       d="m 8.659,5.447 c 0,-1.818 1.476,-3.294 3.294,-3.294 1.818,0 3.294,1.476 3.294,3.294 0,1.818 -1.476,3.294 -3.294,3.294 -1.818,0 -3.294,-1.476 -3.294,-3.294 z m -4.818,6.259 c 0,-1.818 1.476,-3.294 3.294,-3.294 1.818,0 3.294,1.476 3.294,3.294 C 10.429,13.524 8.953,15 7.135,15 5.317,15 3.841,13.524 3.841,11.706 Z M 0.753,4.294 C 0.753,2.476 2.229,1 4.047,1 5.865,1 7.341,2.476 7.341,4.294 7.341,6.112 5.865,7.588 4.047,7.588 2.229,7.588 0.753,6.112 0.753,4.294 Z"
       id="path7" />
  </g>
</svg>
