<?xml version="1.0" encoding="UTF-8" standalone="no"?>
<svg
   xmlns:dc="http://purl.org/dc/elements/1.1/"
   xmlns:cc="http://creativecommons.org/ns#"
   xmlns:rdf="http://www.w3.org/1999/02/22-rdf-syntax-ns#"
   xmlns:svg="http://www.w3.org/2000/svg"
   xmlns="http://www.w3.org/2000/svg"
   xmlns:sodipodi="http://sodipodi.sourceforge.net/DTD/sodipodi-0.dtd"
   xmlns:inkscape="http://www.inkscape.org/namespaces/inkscape"
   width="64"
   height="64"
   version="1.1"
   id="svg4"
   sodipodi:docname="keyboard.svg"
   inkscape:export-filename="/home/eleuth/.config/smplayer/themes/Gruvbox/keyboard.png"
   inkscape:export-xdpi="96"
   inkscape:export-ydpi="96"
   inkscape:version="1.0.2 (e86c870879, 2021-01-15, custom)">
  <metadata
     id="metadata10">
    <rdf:RDF>
      <cc:Work
         rdf:about="">
        <dc:format>image/svg+xml</dc:format>
        <dc:type
           rdf:resource="http://purl.org/dc/dcmitype/StillImage" />
        <dc:title></dc:title>
      </cc:Work>
    </rdf:RDF>
  </metadata>
  <defs
     id="defs8" />
  <sodipodi:namedview
     pagecolor="#ffffff"
     bordercolor="#666666"
     borderopacity="1"
     objecttolerance="10"
     gridtolerance="10"
     guidetolerance="10"
     inkscape:pageopacity="0"
     inkscape:pageshadow="2"
     inkscape:window-width="1376"
     inkscape:window-height="1060"
     id="namedview6"
     showgrid="true"
     inkscape:zoom="11.453125"
     inkscape:cx="33.057982"
     inkscape:cy="33.095495"
     inkscape:window-x="544"
     inkscape:window-y="20"
     inkscape:window-maximized="0"
     inkscape:current-layer="svg4">
    <inkscape:grid
       type="xygrid"
       id="grid12" />
  </sodipodi:namedview>
  <path
     style="fill:#ebdbb2;stroke-width:4.26667"
     d="M 8.5333333,6.4 C 3.8058667,6.4 0,10.205867 0,14.933333 V 49.066667 C 0,53.794133 3.8058667,57.6 8.5333333,57.6 H 55.466667 C 60.194133,57.6 64,53.794133 64,49.066667 V 14.933333 C 64,10.205867 60.194133,6.4 55.466667,6.4 Z M 9.6,14.933333 H 16 c 0.590933,0 1.066667,0.475734 1.066667,1.066667 v 6.4 c 0,0.590933 -0.475734,1.066667 -1.066667,1.066667 H 9.6 C 9.0090667,23.466667 8.5333333,22.990933 8.5333333,22.4 V 16 c 0,-0.590933 0.4757334,-1.066667 1.0666667,-1.066667 z m 12.8,0 h 6.4 c 0.590933,0 1.066667,0.475734 1.066667,1.066667 v 6.4 c 0,0.590933 -0.475734,1.066667 -1.066667,1.066667 h -6.4 c -0.590933,0 -1.066667,-0.475734 -1.066667,-1.066667 V 16 c 0,-0.590933 0.475734,-1.066667 1.066667,-1.066667 z m 12.8,0 h 6.4 c 0.593067,0 1.066667,0.475734 1.066667,1.066667 v 6.4 c 0,0.590933 -0.4736,1.066667 -1.066667,1.066667 h -6.4 c -0.593067,0 -1.066667,-0.475734 -1.066667,-1.066667 V 16 c 0,-0.590933 0.4736,-1.066667 1.066667,-1.066667 z m 12.8,0 h 6.4 c 0.593067,0 1.066667,0.475734 1.066667,1.066667 v 6.4 c 0,0.590933 -0.4736,1.066667 -1.066667,1.066667 H 48 c -0.593067,0 -1.066667,-0.475734 -1.066667,-1.066667 V 16 c 0,-0.590933 0.4736,-1.066667 1.066667,-1.066667 z m -38.4,12.8 H 16 c 0.590933,0 1.066667,0.4736 1.066667,1.066667 v 6.4 c 0,0.593067 -0.475734,1.066667 -1.066667,1.066667 H 9.6 c -0.5909333,0 -1.0666667,-0.4736 -1.0666667,-1.066667 v -6.4 c 0,-0.593067 0.4757334,-1.066667 1.0666667,-1.066667 z m 12.8,0 h 6.4 c 0.590933,0 1.066667,0.4736 1.066667,1.066667 v 6.4 c 0,0.593067 -0.475734,1.066667 -1.066667,1.066667 h -6.4 c -0.590933,0 -1.066667,-0.4736 -1.066667,-1.066667 v -6.4 c 0,-0.593067 0.475734,-1.066667 1.066667,-1.066667 z m 12.8,0 h 6.4 c 0.593067,0 1.066667,0.4736 1.066667,1.066667 v 6.4 c 0,0.593067 -0.4736,1.066667 -1.066667,1.066667 h -6.4 c -0.593067,0 -1.066667,-0.4736 -1.066667,-1.066667 v -6.4 c 0,-0.593067 0.4736,-1.066667 1.066667,-1.066667 z m 12.8,0 h 6.4 c 0.593067,0 1.066667,0.4736 1.066667,1.066667 v 6.4 c 0,0.593067 -0.4736,1.066667 -1.066667,1.066667 H 48 c -0.593067,0 -1.066667,-0.4736 -1.066667,-1.066667 v -6.4 c 0,-0.593067 0.4736,-1.066667 1.066667,-1.066667 z m -29.866667,12.8 h 27.733334 c 0.593066,0 1.066666,0.4736 1.066666,1.066667 V 48 c 0,0.593067 -0.4736,1.066667 -1.066666,1.066667 H 18.133333 c -0.590933,0 -1.066666,-0.4736 -1.066666,-1.066667 v -6.4 c 0,-0.593067 0.475733,-1.066667 1.066666,-1.066667 z"
     id="path2" />
</svg>
