<?xml version="1.0" encoding="UTF-8" standalone="no"?>
<svg
   xmlns:dc="http://purl.org/dc/elements/1.1/"
   xmlns:cc="http://creativecommons.org/ns#"
   xmlns:rdf="http://www.w3.org/1999/02/22-rdf-syntax-ns#"
   xmlns:svg="http://www.w3.org/2000/svg"
   xmlns="http://www.w3.org/2000/svg"
   xmlns:sodipodi="http://sodipodi.sourceforge.net/DTD/sodipodi-0.dtd"
   xmlns:inkscape="http://www.inkscape.org/namespaces/inkscape"
   width="64"
   height="64"
   version="1.1"
   id="svg6"
   sodipodi:docname="mouse.svg"
   inkscape:export-filename="/home/eleuth/.config/smplayer/themes/Gruvbox/mouse.png"
   inkscape:export-xdpi="96"
   inkscape:export-ydpi="96"
   inkscape:version="1.0.2 (e86c870879, 2021-01-15, custom)">
  <metadata
     id="metadata12">
    <rdf:RDF>
      <cc:Work
         rdf:about="">
        <dc:format>image/svg+xml</dc:format>
        <dc:type
           rdf:resource="http://purl.org/dc/dcmitype/StillImage" />
        <dc:title></dc:title>
      </cc:Work>
    </rdf:RDF>
  </metadata>
  <defs
     id="defs10" />
  <sodipodi:namedview
     pagecolor="#ffffff"
     bordercolor="#666666"
     borderopacity="1"
     objecttolerance="10"
     gridtolerance="10"
     guidetolerance="10"
     inkscape:pageopacity="0"
     inkscape:pageshadow="2"
     inkscape:window-width="1376"
     inkscape:window-height="470"
     id="namedview8"
     showgrid="true"
     inkscape:zoom="8.0985824"
     inkscape:cx="29.058985"
     inkscape:cy="37.162268"
     inkscape:window-x="544"
     inkscape:window-y="20"
     inkscape:window-maximized="0"
     inkscape:current-layer="svg6">
    <inkscape:grid
       type="xygrid"
       id="grid14" />
  </sodipodi:namedview>
  <g
     transform="matrix(3.9346331,0,0,3.9346331,-1303.5659,-785.86125)"
     id="g4">
    <path
       d="m 339.43945,201 c -1.29452,0 -2.58858,0.22836 -3.80468,0.67188 l -0.17188,0.0625 -1.08984,5.44726 c -0.18575,0.9277 -0.37005,1.88304 -0.37305,2.86719 -0.003,0.98487 0.17877,1.98492 0.61328,2.88867 0.43478,0.90434 1.11635,1.69034 1.9668,2.23242 0.85024,0.54193 1.85243,0.83008 2.85937,0.83008 1.00694,0 2.00914,-0.28815 2.85938,-0.83008 0.85045,-0.54208 1.53006,-1.32808 1.96484,-2.23242 0.43451,-0.90375 0.61628,-1.90379 0.61328,-2.88867 -0.003,-0.98416 -0.18532,-1.93949 -0.37109,-2.86719 l -1.0918,-5.44726 -0.17187,-0.0625 C 342.0261,201.22836 340.73394,201 339.43945,201 Z M 339,202.02148 V 205 h 1 v -2.97266 c 0.86925,0.0617 1.72813,0.25294 2.55859,0.52344 l 0.9668,4.82813 c 0.18469,0.92229 0.34888,1.80974 0.35156,2.67187 0.003,0.85996 -0.15696,1.71119 -0.51367,2.45313 -0.35617,0.74082 -0.91852,1.38564 -1.60351,1.82226 -0.68544,0.43689 -1.50422,0.67383 -2.32032,0.67383 -0.81609,0 -1.63693,-0.23701 -2.32226,-0.67383 -0.685,-0.43662 -1.24735,-1.08144 -1.60352,-1.82226 -0.35672,-0.74196 -0.51633,-1.59325 -0.51367,-2.45313 0.003,-0.86182 0.16879,-1.74931 0.35352,-2.67187 l 0.96679,-4.82813 c 0.86898,-0.28304 1.7691,-0.47817 2.67969,-0.5293 z"
       style="solid-color:#ebdbb2;fill:#ebdbb2"
       id="path2" />
  </g>
</svg>
