<?xml version="1.0" encoding="UTF-8" standalone="no"?>
<svg
   xmlns:dc="http://purl.org/dc/elements/1.1/"
   xmlns:cc="http://creativecommons.org/ns#"
   xmlns:rdf="http://www.w3.org/1999/02/22-rdf-syntax-ns#"
   xmlns:svg="http://www.w3.org/2000/svg"
   xmlns="http://www.w3.org/2000/svg"
   xmlns:sodipodi="http://sodipodi.sourceforge.net/DTD/sodipodi-0.dtd"
   xmlns:inkscape="http://www.inkscape.org/namespaces/inkscape"
   width="64"
   height="64"
   version="1.1"
   id="svg4"
   sodipodi:docname="openfolder.svg"
   inkscape:version="1.0.2 (e86c870879, 2021-01-15, custom)"
   inkscape:export-filename="/home/eleuth/.config/smplayer/themes/Gruvbox/openfolder.png"
   inkscape:export-xdpi="96"
   inkscape:export-ydpi="96">
  <metadata
     id="metadata10">
    <rdf:RDF>
      <cc:Work
         rdf:about="">
        <dc:format>image/svg+xml</dc:format>
        <dc:type
           rdf:resource="http://purl.org/dc/dcmitype/StillImage" />
        <dc:title />
      </cc:Work>
    </rdf:RDF>
  </metadata>
  <defs
     id="defs8" />
  <sodipodi:namedview
     pagecolor="#ffffff"
     bordercolor="#666666"
     borderopacity="1"
     objecttolerance="10"
     gridtolerance="10"
     guidetolerance="10"
     inkscape:pageopacity="0"
     inkscape:pageshadow="2"
     inkscape:window-width="1376"
     inkscape:window-height="588"
     id="namedview6"
     showgrid="true"
     inkscape:zoom="11.453125"
     inkscape:cx="34.437408"
     inkscape:cy="30.607335"
     inkscape:window-x="544"
     inkscape:window-y="492"
     inkscape:window-maximized="0"
     inkscape:current-layer="svg4"
     inkscape:document-rotation="0">
    <inkscape:grid
       type="xygrid"
       id="grid12" />
  </sodipodi:namedview>
  <path
     style="fill:#ebdbb2;stroke-width:3.99928"
     d="M 15.973147,4.004999 C 10.942047,4.0649883 7.2587039,3.8890197 4.2472416,5.5527226 2.6875202,6.4365648 1.4957328,7.8483127 0.88784146,9.5360113 0.23195859,11.287699 0,13.375325 0,16.002857 v 31.994286 c 0,2.63153 0.23195859,4.715159 0.89184074,6.466845 0.65588286,1.755687 1.85166936,3.159436 3.35940006,3.991288 3.0074631,1.663703 6.6908062,1.479735 11.7219062,1.539725 h 32.042278 c 5.031103,-0.05999 8.714444,0.119978 11.725907,-1.539725 1.503732,-0.827852 2.699517,-2.2396 3.359399,-3.991288 0.655884,-1.751686 0.887842,-3.839314 0.887842,-6.466845 V 24.001428 c 0,-2.631529 -0.231958,-4.715157 -0.89184,-6.466845 -0.07998,-0.219961 -0.191965,-0.415926 -0.295947,-0.61589 L 62.692805,16.690734 C 62.04492,15.37097 61.017104,14.275166 59.741332,13.543296 56.729869,11.879593 53.046528,12.06356 48.015425,12.003571 H 35.861596 L 27.77504,4.004999 H 15.981147 Z"
     id="path2" />
</svg>
