<?xml version="1.0" encoding="UTF-8" standalone="no"?>
<svg
   xmlns:dc="http://purl.org/dc/elements/1.1/"
   xmlns:cc="http://creativecommons.org/ns#"
   xmlns:rdf="http://www.w3.org/1999/02/22-rdf-syntax-ns#"
   xmlns:svg="http://www.w3.org/2000/svg"
   xmlns="http://www.w3.org/2000/svg"
   xmlns:sodipodi="http://sodipodi.sourceforge.net/DTD/sodipodi-0.dtd"
   xmlns:inkscape="http://www.inkscape.org/namespaces/inkscape"
   width="64"
   height="64"
   version="1.1"
   id="svg6"
   sodipodi:docname="open_radio.svg"
   inkscape:version="1.0.2 (e86c870879, 2021-01-15, custom)"
   inkscape:export-filename="/home/eleuth/.config/smplayer/themes/Gruvbox/open_radio.png"
   inkscape:export-xdpi="96"
   inkscape:export-ydpi="96">
  <metadata
     id="metadata12">
    <rdf:RDF>
      <cc:Work
         rdf:about="">
        <dc:format>image/svg+xml</dc:format>
        <dc:type
           rdf:resource="http://purl.org/dc/dcmitype/StillImage" />
        <dc:title></dc:title>
      </cc:Work>
    </rdf:RDF>
  </metadata>
  <defs
     id="defs10" />
  <sodipodi:namedview
     pagecolor="#ffffff"
     bordercolor="#666666"
     borderopacity="1"
     objecttolerance="10"
     gridtolerance="10"
     guidetolerance="10"
     inkscape:pageopacity="0"
     inkscape:pageshadow="2"
     inkscape:window-width="1376"
     inkscape:window-height="470"
     id="namedview8"
     showgrid="true"
     inkscape:zoom="8.0985824"
     inkscape:cx="35.881572"
     inkscape:cy="33.705715"
     inkscape:window-x="544"
     inkscape:window-y="20"
     inkscape:window-maximized="0"
     inkscape:current-layer="svg6">
    <inkscape:grid
       type="xygrid"
       id="grid14" />
  </sodipodi:namedview>
  <path
     style="fill:#ebdbb2;stroke-width:4"
     d="M 4.0625,8 C 1.8111224,8 0,9.8300608 0,12.109375 V 51.890624 C 0,54.170624 1.8111224,56 4.0625,56 h 55.875 C 62.191724,56 64,54.170624 64,51.890624 V 12.109375 C 64,9.8307464 62.191724,8 59.9375,8 Z M 20,16 c 8.836,0 16,7.1636 16,16 0,8.836 -7.164,16 -16,16 C 11.1636,48 4,40.836 4,32 4,23.1636 11.1636,16 20,16 Z m 20,0 h 20 v 4 H 40 Z m 0,12 h 20 v 4 H 40 Z m 0,12 h 20 v 4 H 40 Z"
     id="path2" />
  <path
     style="fill:#ebdbb2;stroke-width:4"
     class="ColorScheme-Text"
     d="M 20,20 C 13.3724,20 8,25.3728 8,32 8,38.628 13.3724,44 20,44 26.6272,44 32,38.628 32,32 32,25.3728 26.6272,20 20,20 Z"
     id="path4" />
</svg>
