<?xml version="1.0" encoding="UTF-8" standalone="no"?>
<svg
   xmlns:dc="http://purl.org/dc/elements/1.1/"
   xmlns:cc="http://creativecommons.org/ns#"
   xmlns:rdf="http://www.w3.org/1999/02/22-rdf-syntax-ns#"
   xmlns:svg="http://www.w3.org/2000/svg"
   xmlns="http://www.w3.org/2000/svg"
   xmlns:sodipodi="http://sodipodi.sourceforge.net/DTD/sodipodi-0.dtd"
   xmlns:inkscape="http://www.inkscape.org/namespaces/inkscape"
   width="64"
   height="64"
   version="1.1"
   id="svg4"
   sodipodi:docname="osd.svg"
   inkscape:export-filename="/home/eleuth/.config/smplayer/themes/Gruvbox/osd.png"
   inkscape:export-xdpi="96"
   inkscape:export-ydpi="96"
   inkscape:version="1.0.2 (e86c870879, 2021-01-15, custom)">
  <metadata
     id="metadata10">
    <rdf:RDF>
      <cc:Work
         rdf:about="">
        <dc:format>image/svg+xml</dc:format>
        <dc:type
           rdf:resource="http://purl.org/dc/dcmitype/StillImage" />
        <dc:title></dc:title>
      </cc:Work>
    </rdf:RDF>
  </metadata>
  <defs
     id="defs8" />
  <sodipodi:namedview
     pagecolor="#ffffff"
     bordercolor="#666666"
     borderopacity="1"
     objecttolerance="10"
     gridtolerance="10"
     guidetolerance="10"
     inkscape:pageopacity="0"
     inkscape:pageshadow="2"
     inkscape:window-width="1376"
     inkscape:window-height="1060"
     id="namedview6"
     showgrid="true"
     inkscape:zoom="8.0985824"
     inkscape:cx="41.335342"
     inkscape:cy="19.215846"
     inkscape:window-x="544"
     inkscape:window-y="20"
     inkscape:window-maximized="0"
     inkscape:current-layer="svg4">
    <inkscape:grid
       type="xygrid"
       id="grid12" />
  </sodipodi:namedview>
  <path
     style="fill:#ebdbb2;stroke-width:3.93333"
     d="m 44.333333,0 v 23.6 h 11.8 C 60.491467,23.6 64,20.091467 64,15.733333 64,12.543793 62.108558,9.8258356 59.390625,8.5888023 59.807558,7.7789289 60.066667,6.8766467 60.066667,5.9 c 0,-3.2686 -2.6314,-5.9 -5.9,-5.9 z M 28.6,3.9333333 8.9333333,59 h 9.8333337 l 4.179166,-11.8 h 19.175 L 46.3,59 H 57.239583 L 36.466667,3.9333333 Z m 19.666667,0 h 5.9 c 1.089533,0 1.966666,0.8771334 1.966666,1.9666667 0,1.0895333 -0.877133,1.9666667 -1.966666,1.9666667 h -5.9 z m 0,7.8666667 h 7.866666 c 2.179067,0 3.933334,1.754267 3.933334,3.933333 0,2.179067 -1.754267,3.933334 -3.933334,3.933334 h -7.866666 z m -15.733334,7.866667 6.883334,19.666666 H 25.65 Z"
     id="path2" />
</svg>
