<?xml version="1.0" encoding="UTF-8" standalone="no"?>
<svg
   xmlns:dc="http://purl.org/dc/elements/1.1/"
   xmlns:cc="http://creativecommons.org/ns#"
   xmlns:rdf="http://www.w3.org/1999/02/22-rdf-syntax-ns#"
   xmlns:svg="http://www.w3.org/2000/svg"
   xmlns="http://www.w3.org/2000/svg"
   xmlns:sodipodi="http://sodipodi.sourceforge.net/DTD/sodipodi-0.dtd"
   xmlns:inkscape="http://www.inkscape.org/namespaces/inkscape"
   width="64"
   height="64"
   version="1.1"
   id="svg4"
   sodipodi:docname="pref_devices.svg"
   inkscape:version="1.0.2 (e86c870879, 2021-01-15, custom)"
   inkscape:export-filename="/home/eleuth/.config/smplayer/themes/Gruvbox/pref_devices.png"
   inkscape:export-xdpi="96"
   inkscape:export-ydpi="96">
  <metadata
     id="metadata10">
    <rdf:RDF>
      <cc:Work
         rdf:about="">
        <dc:format>image/svg+xml</dc:format>
        <dc:type
           rdf:resource="http://purl.org/dc/dcmitype/StillImage" />
        <dc:title></dc:title>
      </cc:Work>
    </rdf:RDF>
  </metadata>
  <defs
     id="defs8" />
  <sodipodi:namedview
     pagecolor="#ffffff"
     bordercolor="#666666"
     borderopacity="1"
     objecttolerance="10"
     gridtolerance="10"
     guidetolerance="10"
     inkscape:pageopacity="0"
     inkscape:pageshadow="2"
     inkscape:window-width="1376"
     inkscape:window-height="470"
     id="namedview6"
     showgrid="true"
     inkscape:zoom="8.0985824"
     inkscape:cx="19.918873"
     inkscape:cy="17.80778"
     inkscape:window-x="544"
     inkscape:window-y="20"
     inkscape:window-maximized="0"
     inkscape:current-layer="svg4">
    <inkscape:grid
       type="xygrid"
       id="grid12" />
  </sodipodi:namedview>
  <path
     style="fill:#ebdbb2;stroke-width:3.85627"
     d="m 12.71866,5.0061235 c -3.8562685,0 -3.8562685,3.8562681 -3.8562685,3.8562681 V 55.137609 c 0,0 0,3.856268 3.8562685,3.856268 h 38.56268 c 0,0 3.856268,0 3.856268,-3.856268 V 8.8623916 c 0,0 0,-3.8562681 -3.856268,-3.8562681 z M 32,12.71866 c 8.518881,0 15.425072,6.906191 15.425072,15.425072 0,8.518882 -6.906191,15.425073 -15.425072,15.425073 H 16.574927 V 28.143732 C 16.574927,19.624851 23.481118,12.71866 32,12.71866 Z m 0,7.712536 c -4.259634,0 -7.712537,3.453018 -7.712537,7.712536 0,4.259518 3.453019,7.712537 7.712537,7.712537 4.259517,0 7.712536,-3.453019 7.712536,-7.712537 0,-4.259518 -3.453019,-7.712536 -7.712536,-7.712536 z"
     id="path2" />
</svg>
