<?xml version="1.0" encoding="UTF-8" standalone="no"?>
<svg
   xmlns:dc="http://purl.org/dc/elements/1.1/"
   xmlns:cc="http://creativecommons.org/ns#"
   xmlns:rdf="http://www.w3.org/1999/02/22-rdf-syntax-ns#"
   xmlns:svg="http://www.w3.org/2000/svg"
   xmlns="http://www.w3.org/2000/svg"
   xmlns:sodipodi="http://sodipodi.sourceforge.net/DTD/sodipodi-0.dtd"
   xmlns:inkscape="http://www.inkscape.org/namespaces/inkscape"
   width="64"
   height="64"
   version="1.1"
   id="svg4"
   sodipodi:docname="prefs.svg"
   inkscape:version="1.0.2 (e86c870879, 2021-01-15, custom)"
   inkscape:export-filename="/home/eleuth/.config/smplayer/themes/Gruvbox/prefs.png"
   inkscape:export-xdpi="96"
   inkscape:export-ydpi="96">
  <metadata
     id="metadata10">
    <rdf:RDF>
      <cc:Work
         rdf:about="">
        <dc:format>image/svg+xml</dc:format>
        <dc:type
           rdf:resource="http://purl.org/dc/dcmitype/StillImage" />
        <dc:title />
        <dc:title />
      </cc:Work>
    </rdf:RDF>
  </metadata>
  <defs
     id="defs8" />
  <sodipodi:namedview
     pagecolor="#ffffff"
     bordercolor="#666666"
     borderopacity="1"
     objecttolerance="10"
     gridtolerance="10"
     guidetolerance="10"
     inkscape:pageopacity="0"
     inkscape:pageshadow="2"
     inkscape:window-width="1376"
     inkscape:window-height="588"
     id="namedview6"
     showgrid="true"
     inkscape:zoom="8.0985824"
     inkscape:cx="44.452638"
     inkscape:cy="22.218572"
     inkscape:window-x="544"
     inkscape:window-y="492"
     inkscape:window-maximized="0"
     inkscape:current-layer="svg4"
     inkscape:document-rotation="0">
    <inkscape:grid
       type="xygrid"
       id="grid12" />
  </sodipodi:namedview>
  <path
     style="fill:#ebdbb2;stroke-width:3.84222"
     d="m 25.283626,5.100757 -0.592843,7.084081 a 21.132172,21.132172 0 0 0 -6.176056,3.572057 l -6.438709,-3.031746 -6.723873,11.646711 5.845867,4.059835 a 21.132172,21.132172 0 0 0 -0.322683,3.564557 21.132172,21.132172 0 0 0 0.307676,3.579558 l -5.8308588,4.044832 6.7238728,11.646704 6.4237,-3.024239 a 21.132172,21.132172 0 0 0 6.191064,3.549543 l 0.577834,7.106593 h 13.447748 l 0.592841,-7.084081 a 21.132172,21.132172 0 0 0 6.176054,-3.572055 l 6.438711,3.031743 6.723873,-11.646704 -5.84587,-4.059839 a 21.132172,21.132172 0 0 0 0.322709,-3.564552 21.132172,21.132172 0 0 0 -0.307685,-3.579563 l 5.830857,-4.044829 -6.723872,-11.64671 -6.423699,3.024242 A 21.132172,21.132172 0 0 0 39.309206,12.207351 L 38.731371,5.100757 Z m 6.723873,19.211067 a 7.6844263,7.6844263 0 0 1 7.684427,7.684428 7.6844263,7.6844263 0 0 1 -7.684427,7.684426 7.6844263,7.6844263 0 0 1 -7.684426,-7.684426 7.6844263,7.6844263 0 0 1 7.684426,-7.684428 z"
     id="path2" />
</svg>
