<?xml version="1.0" encoding="UTF-8" standalone="no"?>
<svg
   xmlns:dc="http://purl.org/dc/elements/1.1/"
   xmlns:cc="http://creativecommons.org/ns#"
   xmlns:rdf="http://www.w3.org/1999/02/22-rdf-syntax-ns#"
   xmlns:svg="http://www.w3.org/2000/svg"
   xmlns="http://www.w3.org/2000/svg"
   xmlns:sodipodi="http://sodipodi.sourceforge.net/DTD/sodipodi-0.dtd"
   xmlns:inkscape="http://www.inkscape.org/namespaces/inkscape"
   width="64"
   height="64"
   version="1.1"
   id="svg8"
   sodipodi:docname="send_to_screen.svg"
   inkscape:version="1.0.2 (e86c870879, 2021-01-15, custom)"
   inkscape:export-filename="/home/eleuth/.config/smplayer/themes/Gruvbox/send_to_screen.png"
   inkscape:export-xdpi="96"
   inkscape:export-ydpi="96">
  <metadata
     id="metadata14">
    <rdf:RDF>
      <cc:Work
         rdf:about="">
        <dc:format>image/svg+xml</dc:format>
        <dc:type
           rdf:resource="http://purl.org/dc/dcmitype/StillImage" />
        <dc:title></dc:title>
      </cc:Work>
    </rdf:RDF>
  </metadata>
  <defs
     id="defs12" />
  <sodipodi:namedview
     pagecolor="#ffffff"
     bordercolor="#666666"
     borderopacity="1"
     objecttolerance="10"
     gridtolerance="10"
     guidetolerance="10"
     inkscape:pageopacity="0"
     inkscape:pageshadow="2"
     inkscape:window-width="1376"
     inkscape:window-height="638"
     id="namedview10"
     showgrid="true"
     inkscape:zoom="11.453125"
     inkscape:cx="33.374636"
     inkscape:cy="22.193578"
     inkscape:window-x="544"
     inkscape:window-y="20"
     inkscape:window-maximized="0"
     inkscape:current-layer="svg8">
    <inkscape:grid
       type="xygrid"
       id="grid16" />
  </sodipodi:namedview>
  <g
     transform="matrix(4,0,0,4,-1568,-720)"
     id="g6"
     inkscape:export-xdpi="96"
     inkscape:export-ydpi="96">
    <path
       d="m 395,183 c -0.65761,0 -1.17853,0.0599 -1.61719,0.22461 -0.43866,0.16467 -0.79039,0.46152 -0.99804,0.83789 -0.41532,0.75275 -0.3702,1.67345 -0.38477,2.93164 v 0.004 2.0039 0.004 c 0.0145,1.25819 -0.0306,2.17889 0.38477,2.93164 0.20766,0.37637 0.55938,0.67322 0.99804,0.83789 C 393.82148,192.94006 394.34239,193 395,193 h 6 c 0.65761,0 1.17852,-0.0599 1.61719,-0.22461 0.43866,-0.16466 0.79038,-0.46152 0.99804,-0.83789 0.41534,-0.75275 0.37025,-1.67344 0.38477,-2.93164 v -0.004 -2.0039 -0.004 c -0.0145,-1.2582 0.0306,-2.17889 -0.38477,-2.93164 -0.20766,-0.37637 -0.55938,-0.67323 -0.99804,-0.83789 C 402.17852,183.05994 401.65761,183 401,183 Z m 0.5,1.49659 h 5 c 0.59239,0 1.00572,0.0626 1.26562,0.16016 0.25991,0.0976 0.37147,0.20135 0.47266,0.38476 0.20191,0.36596 0.24701,1.19655 0.26172,2.45508 v 0.99978 c -0.0146,1.26353 -0.0593,2.09217 -0.26172,2.45898 -0.1012,0.18341 -0.21274,0.28916 -0.47266,0.38672 -0.25991,0.0976 -0.67323,0.16016 -1.26562,0.16016 h -5 c -0.59239,0 -1.00572,-0.0626 -1.26562,-0.16016 -0.25991,-0.0976 -0.37147,-0.20331 -0.47266,-0.38672 -0.20191,-0.36595 -0.24701,-1.1946 -0.26172,-2.45312 v -0.006 -0.99392 -0.006 c 0.0147,-1.25853 0.0598,-2.08912 0.26172,-2.45508 0.10119,-0.18341 0.21275,-0.2872 0.47266,-0.38476 0.2599,-0.0976 0.67323,-0.16016 1.26562,-0.16016 z"
       style="solid-color:#ebdbb2;fill:#ebdbb2"
       id="path2"
       sodipodi:nodetypes="sccccccccssccccccccssssccccccssccccccccs" />
    <path
       d="m 408,184.71875 c -1.23971,0.58734 -2.98131,1.54153 -5,2.71094 v 1.14258 c 1.99268,1.15764 3.73306,2.10927 5,2.70898 z"
       style="fill:#ebdbb2"
       id="path4" />
  </g>
</svg>
