<?xml version="1.0" encoding="UTF-8" standalone="no"?>
<svg
   xmlns:dc="http://purl.org/dc/elements/1.1/"
   xmlns:cc="http://creativecommons.org/ns#"
   xmlns:rdf="http://www.w3.org/1999/02/22-rdf-syntax-ns#"
   xmlns:svg="http://www.w3.org/2000/svg"
   xmlns="http://www.w3.org/2000/svg"
   xmlns:sodipodi="http://sodipodi.sourceforge.net/DTD/sodipodi-0.dtd"
   xmlns:inkscape="http://www.inkscape.org/namespaces/inkscape"
   width="64"
   height="64"
   version="1.1"
   id="svg4"
   sodipodi:docname="share.svg"
   inkscape:export-filename="/home/eleuth/.config/smplayer/themes/Gruvbox/share.png"
   inkscape:export-xdpi="96"
   inkscape:export-ydpi="96"
   inkscape:version="1.0.2 (e86c870879, 2021-01-15, custom)">
  <metadata
     id="metadata10">
    <rdf:RDF>
      <cc:Work
         rdf:about="">
        <dc:format>image/svg+xml</dc:format>
        <dc:type
           rdf:resource="http://purl.org/dc/dcmitype/StillImage" />
        <dc:title></dc:title>
      </cc:Work>
    </rdf:RDF>
  </metadata>
  <defs
     id="defs8" />
  <sodipodi:namedview
     pagecolor="#ffffff"
     bordercolor="#666666"
     borderopacity="1"
     objecttolerance="10"
     gridtolerance="10"
     guidetolerance="10"
     inkscape:pageopacity="0"
     inkscape:pageshadow="2"
     inkscape:window-width="1376"
     inkscape:window-height="638"
     id="namedview6"
     showgrid="true"
     inkscape:zoom="11.453125"
     inkscape:cx="38.471417"
     inkscape:cy="41.523535"
     inkscape:window-x="544"
     inkscape:window-y="20"
     inkscape:window-maximized="0"
     inkscape:current-layer="svg4">
    <inkscape:grid
       type="xygrid"
       id="grid12" />
  </sodipodi:namedview>
  <path
     style="fill:#ebdbb2;stroke-width:4.00108"
     d="m 48.004338,0 c -6.628996,0 -12.003253,5.3742564 -12.003253,12.003253 0,0.925331 0.177048,1.760518 0.375102,2.625711 l -12.878492,8.002168 c -2.054196,-1.645525 -4.664863,-2.625712 -7.502033,-2.625712 -6.6289963,0 -12.0032527,5.374257 -12.0032527,12.003253 0,6.628996 5.3742564,12.003252 12.0032527,12.003252 2.836929,0 5.447476,-0.980184 7.502033,-2.625711 l 12.878492,8.002169 c -0.198054,0.865195 -0.375102,1.70038 -0.375102,2.625712 0,6.628995 5.374257,12.003252 12.003253,12.003252 6.628997,0 12.003253,-5.374257 12.003253,-12.003252 0,-6.628997 -5.374256,-12.003253 -12.003253,-12.003253 -2.836929,0 -5.447477,0.980185 -7.502032,2.625712 l -12.878491,-8.00217 c 0.198054,-0.865194 0.375103,-1.70038 0.375103,-2.625711 0,-0.925331 -0.177049,-1.760517 -0.375103,-2.625711 l 12.878491,-8.002169 c 2.054196,1.645525 4.664863,2.625712 7.502032,2.625712 6.628997,0 12.003253,-5.374255 12.003253,-12.003252 C 60.007591,5.3742564 54.633335,0 48.004338,0 Z"
     id="path2" />
</svg>
