<?xml version="1.0" encoding="UTF-8" standalone="no"?>
<svg
   xmlns:dc="http://purl.org/dc/elements/1.1/"
   xmlns:cc="http://creativecommons.org/ns#"
   xmlns:rdf="http://www.w3.org/1999/02/22-rdf-syntax-ns#"
   xmlns:svg="http://www.w3.org/2000/svg"
   xmlns="http://www.w3.org/2000/svg"
   xmlns:sodipodi="http://sodipodi.sourceforge.net/DTD/sodipodi-0.dtd"
   xmlns:inkscape="http://www.inkscape.org/namespaces/inkscape"
   width="64"
   height="64"
   version="1.1"
   id="svg4"
   sodipodi:docname="social_twitter.svg"
   inkscape:export-filename="/home/eleuth/.config/smplayer/themes/Gruvbox/social_twitter.png"
   inkscape:export-xdpi="96"
   inkscape:export-ydpi="96"
   inkscape:version="1.0.2 (e86c870879, 2021-01-15, custom)">
  <metadata
     id="metadata10">
    <rdf:RDF>
      <cc:Work
         rdf:about="">
        <dc:format>image/svg+xml</dc:format>
        <dc:type
           rdf:resource="http://purl.org/dc/dcmitype/StillImage" />
        <dc:title></dc:title>
      </cc:Work>
    </rdf:RDF>
  </metadata>
  <defs
     id="defs8" />
  <sodipodi:namedview
     pagecolor="#ffffff"
     bordercolor="#666666"
     borderopacity="1"
     objecttolerance="10"
     gridtolerance="10"
     guidetolerance="10"
     inkscape:pageopacity="0"
     inkscape:pageshadow="2"
     inkscape:window-width="1376"
     inkscape:window-height="638"
     id="namedview6"
     showgrid="true"
     inkscape:zoom="8.0985824"
     inkscape:cx="50.902737"
     inkscape:cy="30.963353"
     inkscape:window-x="544"
     inkscape:window-y="20"
     inkscape:window-maximized="0"
     inkscape:current-layer="svg4">
    <inkscape:grid
       type="xygrid"
       id="grid12" />
  </sodipodi:namedview>
  <path
     style="fill:#ebdbb2;stroke-width:4"
     d="m 44.3125,4 c -7.251345,0 -13.132812,6.325663 -13.132812,14.132812 0,1.108007 0.119744,2.191976 0.343748,3.226563 C 20.610457,20.769565 10.929445,15.138594 4.4531248,6.5859376 3.3228929,8.673816 2.6796875,11.104414 2.6796875,13.695312 c 0,4.904776 2.3126669,9.230837 5.8359373,11.765626 -2.1523476,-0.07341 -4.1750672,-0.706904 -5.9453123,-1.765626 -0.00152,0.05895 0,0.112264 0,0.171876 0,6.849344 4.5246535,12.566981 10.5312495,13.867188 -1.101812,0.323164 -2.263504,0.492187 -3.4609372,0.492187 -0.846112,0 -1.6668288,-0.08531 -2.4687496,-0.25 C 8.842918,43.5928 13.69148,47.67504 19.4375,47.789064 14.94362,51.580992 9.2845544,53.843752 3.1328125,53.843752 2.0729818,53.843752 1.0272206,53.779016 0,53.648436 5.8110116,57.659884 12.709233,60 20.125,60 44.277104,60 57.484376,38.455405 57.484376,19.773438 c 0,-0.612927 -0.006,-1.221417 -0.0312,-1.828126 C 60.01828,15.952509 62.23966,13.46019 64,10.625 c -2.354636,1.124577 -4.883392,1.884817 -7.539064,2.226562 2.71076,-1.749578 4.793304,-4.519016 5.77344,-7.820312 -2.537348,1.620378 -5.344792,2.7957444 -8.33594,3.4296876 C 51.503496,5.7132756 48.089184,4 44.3125,4 Z"
     id="path2" />
</svg>
