<?xml version="1.0" encoding="UTF-8" standalone="no"?>
<svg
   xmlns:dc="http://purl.org/dc/elements/1.1/"
   xmlns:cc="http://creativecommons.org/ns#"
   xmlns:rdf="http://www.w3.org/1999/02/22-rdf-syntax-ns#"
   xmlns:svg="http://www.w3.org/2000/svg"
   xmlns="http://www.w3.org/2000/svg"
   xmlns:sodipodi="http://sodipodi.sourceforge.net/DTD/sodipodi-0.dtd"
   xmlns:inkscape="http://www.inkscape.org/namespaces/inkscape"
   width="64"
   height="64"
   version="1.1"
   id="svg4"
   sodipodi:docname="speaker.svg"
   inkscape:export-filename="/home/eleuth/.config/smplayer/themes/Gruvbox/speaker.png"
   inkscape:export-xdpi="96"
   inkscape:export-ydpi="96"
   inkscape:version="1.0.2 (e86c870879, 2021-01-15, custom)">
  <metadata
     id="metadata10">
    <rdf:RDF>
      <cc:Work
         rdf:about="">
        <dc:format>image/svg+xml</dc:format>
        <dc:type
           rdf:resource="http://purl.org/dc/dcmitype/StillImage" />
        <dc:title></dc:title>
      </cc:Work>
    </rdf:RDF>
  </metadata>
  <defs
     id="defs8" />
  <sodipodi:namedview
     pagecolor="#ffffff"
     bordercolor="#666666"
     borderopacity="1"
     objecttolerance="10"
     gridtolerance="10"
     guidetolerance="10"
     inkscape:pageopacity="0"
     inkscape:pageshadow="2"
     inkscape:window-width="1376"
     inkscape:window-height="638"
     id="namedview6"
     showgrid="true"
     inkscape:zoom="8.0985824"
     inkscape:cx="23.404075"
     inkscape:cy="30.268155"
     inkscape:window-x="544"
     inkscape:window-y="20"
     inkscape:window-maximized="0"
     inkscape:current-layer="svg4">
    <inkscape:grid
       type="xygrid"
       id="grid12" />
  </sodipodi:namedview>
  <path
     style="fill:#ebdbb2;stroke-width:3.92584"
     d="m 17.334005,5 c -7.332806,0 -7.332806,7.332806 -7.332806,7.332806 v 40.331376 c 0,7.332807 6.941759,7.319533 7.332806,7.332807 h 29.33199 c 0,0 7.332806,-0.01492 7.332806,-7.332807 V 12.332806 c 0,-7.3328056 -7.332806,-7.3328056 -7.332806,-7.3328056 z m 14.665996,7.332806 c 2.031475,0 3.666594,1.648014 3.666594,3.666592 0,2.018961 -1.635119,3.666593 -3.666594,3.666593 -2.032237,0 -3.666594,-1.647632 -3.666594,-3.666593 0,-2.018578 1.634357,-3.666592 3.666594,-3.666592 z m 0,10.999399 c 8.09973,0 14.665994,6.566261 14.665994,14.665991 0,8.099723 -6.566264,14.665986 -14.665994,14.665986 -8.099734,0 -14.665996,-6.566263 -14.665996,-14.665986 0,-8.09973 6.566262,-14.665991 14.665996,-14.665991 z m 0,7.333185 c -4.050055,0 -7.332811,3.282753 -7.332811,7.332806 0,4.05005 3.282756,7.332799 7.332811,7.332799 4.050054,0 7.332806,-3.282749 7.332806,-7.332799 0,-4.050053 -3.282752,-7.332806 -7.332806,-7.332806 z"
     id="path2" />
</svg>
