<?xml version="1.0" encoding="UTF-8" standalone="no"?>
<svg
   xmlns:dc="http://purl.org/dc/elements/1.1/"
   xmlns:cc="http://creativecommons.org/ns#"
   xmlns:rdf="http://www.w3.org/1999/02/22-rdf-syntax-ns#"
   xmlns:svg="http://www.w3.org/2000/svg"
   xmlns="http://www.w3.org/2000/svg"
   xmlns:sodipodi="http://sodipodi.sourceforge.net/DTD/sodipodi-0.dtd"
   xmlns:inkscape="http://www.inkscape.org/namespaces/inkscape"
   width="64"
   height="64"
   version="1.1"
   id="svg4"
   sodipodi:docname="stereo3d.svg"
   inkscape:version="1.0.2 (e86c870879, 2021-01-15, custom)"
   inkscape:export-filename="/home/eleuth/.config/smplayer/themes/Gruvbox/stereo3d.png"
   inkscape:export-xdpi="96"
   inkscape:export-ydpi="96">
  <metadata
     id="metadata10">
    <rdf:RDF>
      <cc:Work
         rdf:about="">
        <dc:format>image/svg+xml</dc:format>
        <dc:type
           rdf:resource="http://purl.org/dc/dcmitype/StillImage" />
        <dc:title></dc:title>
        <dc:title></dc:title>
        <dc:title></dc:title>
      </cc:Work>
    </rdf:RDF>
  </metadata>
  <defs
     id="defs8" />
  <sodipodi:namedview
     pagecolor="#ffffff"
     bordercolor="#666666"
     borderopacity="1"
     objecttolerance="10"
     gridtolerance="10"
     guidetolerance="10"
     inkscape:pageopacity="0"
     inkscape:pageshadow="2"
     inkscape:window-width="1376"
     inkscape:window-height="638"
     id="namedview6"
     showgrid="true"
     inkscape:zoom="8.0985824"
     inkscape:cx="40.371283"
     inkscape:cy="0.40525226"
     inkscape:window-x="544"
     inkscape:window-y="20"
     inkscape:window-maximized="0"
     inkscape:current-layer="svg4">
    <inkscape:grid
       type="xygrid"
       id="grid12" />
  </sodipodi:namedview>
  <path
     d="M 29.070668,4.9986075 C 21.131033,4.9997975 12.762217,7.2206805 6.8760718,8.0768535 4.2743417,8.4550764 2.6842453,11.297454 2.6842453,14.739954 v 3.266355 c 0,1.047524 0.1419456,1.848999 0.4401878,2.403167 0.2966357,0.550952 0.7200879,0.83145 1.28954,0.83145 1.7361078,0 2.5300419,0.212898 4.2726862,0.212898 0.5055783,0 0.9149853,-0.235961 1.2105143,-0.707404 0.2926494,-0.467542 0.4393894,-1.096109 0.4393894,-1.835991 0,-0.388347 0.146716,-0.764266 0.452147,-1.16033 0.302224,-0.391624 0.855415,-0.578143 1.093372,-0.578143 h 0.0078 c 4.101953,0 8.20327,-0.0011 12.311839,-0.0011 0.562994,0 0.991376,0.276228 1.290737,0.826825 0.299021,0.549993 0.450555,1.355385 0.453744,2.402019 0.0016,0.664509 0.0035,1.323519 0.0051,1.976773 0.0026,1.063252 -0.144331,1.868715 -0.440985,2.419331 -0.296636,0.550314 -0.724075,0.82567 -1.287867,0.82567 -2.651248,0 -5.29548,0.0011 -7.939949,0.0011 -0.531099,0 -0.900232,0.210906 -1.106689,0.609324 -0.206527,0.399918 -0.316572,1.134821 -0.31497,2.186803 0.0022,2.090298 0.0071,4.174536 0.0078,6.259206 0.0011,1.057318 0.110047,1.789254 0.32056,2.218523 0.205745,0.417702 0.57894,0.621447 1.111313,0.621447 h 8.390584 c 0.551829,0 0.977104,0.262351 1.261312,0.793374 0.282288,0.526548 0.432213,1.307346 0.434604,2.327581 0.0019,0.734282 0.0044,1.469452 0.0063,2.197761 0.0024,1.05287 -0.141165,1.854938 -0.422644,2.413554 -0.280685,0.558608 -0.706531,0.831443 -1.258443,0.831443 -4.26758,0 -8.53532,5.83e-4 -12.8029,5.83e-4 -0.441783,0 -0.791061,-0.170874 -1.053022,-0.512912 -0.258363,-0.337331 -0.476079,-0.8806 -0.631581,-1.641546 -0.03988,-0.193706 -0.07176,-0.429502 -0.124392,-0.734522 -0.2304534,-1.407084 -0.7615554,-2.106026 -1.5341954,-2.106026 -1.7005413,0 -2.0856241,-0.02619 -3.7805047,-0.02619 -0.5717662,0 -0.9943273,0.259811 -1.2918542,0.799716 -0.2989943,0.544093 -0.4417141,1.349149 -0.4417141,2.402018 v 2.343738 c 0,2.805562 1.3731905,10.048889 3.8681427,10.048889 7.4353297,0 14.8705827,2.343155 22.3059167,2.343155 h 0.02384 1.079573 1.793845 v 0.0029 c 6.768194,-0.04785 18.365687,-3.045786 27.522532,-4.360909 0.908365,-0.130843 1.669841,-0.752464 1.669841,-1.670388 v -38.75493 c 0,-0.918183 -0.770329,-2.407369 -1.669841,-2.590119 C 50.471759,9.7599335 35.998375,5.0505109 32.123934,4.9988928 H 29.379705 29.08862 Z m 8.250953,16.1044195 9.5464,1.399202 c 0.908682,0.132955 1.670635,0.751668 1.669759,1.669237 l -0.01603,18.362171 c -9.58e-4,0.917886 -0.751989,1.646394 -1.669283,1.66924 l -9.528457,0.239482 z"
     style="fill:#ebdbb2;fill-rule:evenodd;stroke-width:3.90927"
     id="path2" />
</svg>
