<?xml version="1.0" encoding="UTF-8" standalone="no"?>
<svg
   xmlns:dc="http://purl.org/dc/elements/1.1/"
   xmlns:cc="http://creativecommons.org/ns#"
   xmlns:rdf="http://www.w3.org/1999/02/22-rdf-syntax-ns#"
   xmlns:svg="http://www.w3.org/2000/svg"
   xmlns="http://www.w3.org/2000/svg"
   xmlns:sodipodi="http://sodipodi.sourceforge.net/DTD/sodipodi-0.dtd"
   xmlns:inkscape="http://www.inkscape.org/namespaces/inkscape"
   width="64"
   height="64"
   version="1.1"
   id="svg4"
   sodipodi:docname="pref_subtitles.svg"
   inkscape:export-filename="/home/eleuth/.config/smplayer/themes/Gruvbox/pref_subtitles.png"
   inkscape:export-xdpi="96"
   inkscape:export-ydpi="96"
   inkscape:version="1.0.2 (e86c870879, 2021-01-15, custom)">
  <metadata
     id="metadata10">
    <rdf:RDF>
      <cc:Work
         rdf:about="">
        <dc:format>image/svg+xml</dc:format>
        <dc:type
           rdf:resource="http://purl.org/dc/dcmitype/StillImage" />
        <dc:title></dc:title>
      </cc:Work>
    </rdf:RDF>
  </metadata>
  <defs
     id="defs8" />
  <sodipodi:namedview
     pagecolor="#ffffff"
     bordercolor="#666666"
     borderopacity="1"
     objecttolerance="10"
     gridtolerance="10"
     guidetolerance="10"
     inkscape:pageopacity="0"
     inkscape:pageshadow="2"
     inkscape:window-width="1376"
     inkscape:window-height="1060"
     id="namedview6"
     showgrid="true"
     inkscape:zoom="5.6568543"
     inkscape:cx="51.579409"
     inkscape:cy="21.075316"
     inkscape:window-x="544"
     inkscape:window-y="20"
     inkscape:window-maximized="0"
     inkscape:current-layer="svg4">
    <inkscape:grid
       type="xygrid"
       id="grid12" />
  </sodipodi:namedview>
  <path
     style="fill:#ebdbb2;stroke-width:4.5716"
     d="m 4.571712,9.1419703 c -2.5326697,0 -4.57160592,2.0389367 -4.57160592,4.5716067 v 36.572847 c 0,2.532669 2.03893622,4.571606 4.57160592,4.571606 h 54.859269 c 2.532671,0 4.571608,-2.038937 4.571608,-4.571606 V 13.713577 c 0,-2.53267 -2.038937,-4.5716067 -4.571608,-4.5716067 z M 9.1433181,31.999998 h 9.1432099 v 4.571607 H 9.1433181 Z m 13.7148159,0 h 18.286424 v 4.571607 H 22.858134 Z m 22.858031,0 h 9.14321 v 4.571607 h -9.14321 z M 9.1433181,41.143213 h 4.5716069 v 4.571604 H 9.1433181 Z m 9.1432099,0 h 18.286424 v 4.571604 H 18.286528 Z m 22.85803,0 h 13.714817 v 4.571604 H 41.144558 Z"
     id="path2" />
</svg>
