<?xml version="1.0" encoding="UTF-8" standalone="no"?>
<svg
   xmlns:dc="http://purl.org/dc/elements/1.1/"
   xmlns:cc="http://creativecommons.org/ns#"
   xmlns:rdf="http://www.w3.org/1999/02/22-rdf-syntax-ns#"
   xmlns:svg="http://www.w3.org/2000/svg"
   xmlns="http://www.w3.org/2000/svg"
   xmlns:sodipodi="http://sodipodi.sourceforge.net/DTD/sodipodi-0.dtd"
   xmlns:inkscape="http://www.inkscape.org/namespaces/inkscape"
   width="64"
   height="64"
   version="1.1"
   id="svg4"
   sodipodi:docname="type_url.svg"
   inkscape:export-filename="/home/eleuth/.config/smplayer/themes/Gruvbox/type_url.png"
   inkscape:export-xdpi="96"
   inkscape:export-ydpi="96"
   inkscape:version="1.0.2 (e86c870879, 2021-01-15, custom)">
  <metadata
     id="metadata10">
    <rdf:RDF>
      <cc:Work
         rdf:about="">
        <dc:format>image/svg+xml</dc:format>
        <dc:type
           rdf:resource="http://purl.org/dc/dcmitype/StillImage" />
        <dc:title></dc:title>
      </cc:Work>
    </rdf:RDF>
  </metadata>
  <defs
     id="defs8" />
  <sodipodi:namedview
     pagecolor="#ffffff"
     bordercolor="#666666"
     borderopacity="1"
     objecttolerance="10"
     gridtolerance="10"
     guidetolerance="10"
     inkscape:pageopacity="0"
     inkscape:pageshadow="2"
     inkscape:window-width="1376"
     inkscape:window-height="1060"
     id="namedview6"
     showgrid="true"
     inkscape:zoom="11.453125"
     inkscape:cx="35.810634"
     inkscape:cy="35.118106"
     inkscape:window-x="544"
     inkscape:window-y="20"
     inkscape:window-maximized="0"
     inkscape:current-layer="svg4">
    <inkscape:grid
       type="xygrid"
       id="grid12" />
  </sodipodi:namedview>
  <path
     style="fill:#ebdbb2;stroke-width:4"
     d="m 20,11.999999 c -11.08,0 -20,8.92 -20,20.000001 0,11.080001 8.92,20.000001 20,20.000001 h 8 v -8 H 20 C 13.352,44.000001 8,38.647999 8,32 8,25.352 13.352,20 20,20 h 8 v -8.000001 z m 16,0 V 20 h 8 c 6.648,0 12,5.352 12,12 0,6.647999 -5.352,12.000001 -12,12.000001 h -8 v 8 h 8 c 11.08,0 20,-8.92 20,-20.000001 C 64,20.919999 55.08,11.999999 44,11.999999 Z M 20,28 v 8 h 24 v -8 z"
     id="path2" />
</svg>
