<?xml version="1.0" encoding="UTF-8" standalone="no"?>
<svg
   xmlns:dc="http://purl.org/dc/elements/1.1/"
   xmlns:cc="http://creativecommons.org/ns#"
   xmlns:rdf="http://www.w3.org/1999/02/22-rdf-syntax-ns#"
   xmlns:svg="http://www.w3.org/2000/svg"
   xmlns="http://www.w3.org/2000/svg"
   xmlns:sodipodi="http://sodipodi.sourceforge.net/DTD/sodipodi-0.dtd"
   xmlns:inkscape="http://www.inkscape.org/namespaces/inkscape"
   width="64"
   height="64"
   version="1.1"
   id="svg4"
   sodipodi:docname="update_youtube.svg"
   inkscape:export-filename="/home/eleuth/.config/smplayer/themes/Gruvbox/update_youtube.png"
   inkscape:export-xdpi="96"
   inkscape:export-ydpi="96"
   inkscape:version="1.0.2 (e86c870879, 2021-01-15, custom)">
  <metadata
     id="metadata10">
    <rdf:RDF>
      <cc:Work
         rdf:about="">
        <dc:format>image/svg+xml</dc:format>
        <dc:type
           rdf:resource="http://purl.org/dc/dcmitype/StillImage" />
        <dc:title></dc:title>
      </cc:Work>
    </rdf:RDF>
  </metadata>
  <defs
     id="defs8" />
  <sodipodi:namedview
     pagecolor="#ffffff"
     bordercolor="#666666"
     borderopacity="1"
     objecttolerance="10"
     gridtolerance="10"
     guidetolerance="10"
     inkscape:pageopacity="0"
     inkscape:pageshadow="2"
     inkscape:window-width="1376"
     inkscape:window-height="1060"
     id="namedview6"
     showgrid="true"
     inkscape:zoom="8.0985824"
     inkscape:cx="26.421505"
     inkscape:cy="23.057126"
     inkscape:window-x="544"
     inkscape:window-y="20"
     inkscape:window-maximized="0"
     inkscape:current-layer="svg4">
    <inkscape:grid
       type="xygrid"
       id="grid12" />
  </sodipodi:namedview>
  <path
     style="fill:#ebdbb2;stroke-width:4"
     d="m 32.429688,8.0000012 c -7.4792,0.0016 -18.513113,0.4949752 -21.820313,0.6093752 C 7.0141744,8.953376 5.6877624,9.1455012 3.7265625,10.937501 0.70728248,13.779901 0,19.370276 0,27.921876 v 8.132813 c 2.132e-7,9.7496 1.214135,14.707624 3.234375,16.515624 2.3083202,2.116 3.831295,2.279252 5.359375,2.531252 0.5956,0.092 4.8293,0.898436 23.5625,0.898436 11.678398,0 21.714002,-0.594564 22.749998,-0.726564 1.676004,-0.228 4.046816,-0.555124 5.882816,-2.703124 C 63.473064,49.322313 64,43.924361 64,36.101563 v -9.46875 c 0,-5.0612 -0.25892,-12.203524 -3.210936,-15.203124 -2.24,-2.0212002 -3.055688,-2.5855378 -7.679688,-2.8359378 -1.304,-0.0616 -12.708888,-0.59511 -20.679688,-0.59375 z M 24,16.000001 l 20,16 -20,16 z m 26,16 c 2.76,0 5.235624,1.138125 7.046876,2.953125 L 60,32.000001 v 7.78125 h -7.781248 l 3.265624,-3.265625 C 54.078124,35.104376 52.145,34.218751 50,34.218751 c -4.288748,0 -7.781248,3.4925 -7.781248,7.78125 H 40 c 0,-5.51125 4.483752,-10 10,-10 z m 7.781248,10 H 60 c 0,5.516252 -4.483748,10 -10,10 -2.76,0 -5.235628,-1.138128 -7.046876,-2.953124 L 40,52.000001 v -7.781248 h 7.781248 l -3.265624,3.265624 c 1.448748,1.466252 3.423128,2.295628 5.484376,2.296872 4.288752,0 7.781248,-3.492496 7.781248,-7.781248 z"
     id="path2" />
</svg>
