<?xml version="1.0" encoding="UTF-8" standalone="no"?>
<svg
   xmlns:dc="http://purl.org/dc/elements/1.1/"
   xmlns:cc="http://creativecommons.org/ns#"
   xmlns:rdf="http://www.w3.org/1999/02/22-rdf-syntax-ns#"
   xmlns:svg="http://www.w3.org/2000/svg"
   xmlns="http://www.w3.org/2000/svg"
   xmlns:sodipodi="http://sodipodi.sourceforge.net/DTD/sodipodi-0.dtd"
   xmlns:inkscape="http://www.inkscape.org/namespaces/inkscape"
   width="64"
   height="64"
   version="1.1"
   id="svg4"
   sodipodi:docname="audio_delay.svg"
   inkscape:export-filename="/home/eleuth/.config/smplayer/themes/Gruvbox/delay_down.png"
   inkscape:export-xdpi="96"
   inkscape:export-ydpi="96"
   inkscape:version="1.0.2 (e86c870879, 2021-01-15, custom)">
  <metadata
     id="metadata10">
    <rdf:RDF>
      <cc:Work
         rdf:about="">
        <dc:format>image/svg+xml</dc:format>
        <dc:type
           rdf:resource="http://purl.org/dc/dcmitype/StillImage" />
        <dc:title></dc:title>
      </cc:Work>
    </rdf:RDF>
  </metadata>
  <defs
     id="defs8" />
  <sodipodi:namedview
     pagecolor="#ffffff"
     bordercolor="#666666"
     borderopacity="1"
     objecttolerance="10"
     gridtolerance="10"
     guidetolerance="10"
     inkscape:pageopacity="0"
     inkscape:pageshadow="2"
     inkscape:window-width="1920"
     inkscape:window-height="1060"
     id="namedview6"
     showgrid="true"
     inkscape:zoom="8.0000004"
     inkscape:cx="33.599399"
     inkscape:cy="37.574023"
     inkscape:window-x="0"
     inkscape:window-y="20"
     inkscape:window-maximized="1"
     inkscape:current-layer="svg4"
     inkscape:document-rotation="0"
     showguides="true"
     inkscape:guide-bbox="true">
    <inkscape:grid
       type="xygrid"
       id="grid12" />
    <sodipodi:guide
       position="32,72"
       orientation="1,0"
       id="guide37" />
    <sodipodi:guide
       position="-6,29"
       orientation="0,-1"
       id="guide57" />
  </sodipodi:namedview>
  <path
     id="rect4120"
     style="fill:#ebdbb2;fill-opacity:1;stroke:none;stroke-width:3.13738"
     d="m 32.00174,3.936487 c -3.476214,0 -6.274764,2.7985508 -6.274764,6.274764 0,0.14923 0.02595,0.2918 0.03994,0.437563 -4.217777,1.078147 -8.210925,3.263375 -11.512812,6.565262 -9.8031449,9.803144 -9.8031449,25.693935 0,35.49708 9.803144,9.803143 25.69212,9.803143 35.495264,0 9.303473,-9.303474 9.77125,-24.086044 1.416179,-33.94836 0.493941,-0.540221 0.81158,-1.233875 0.81158,-2.029858 0,-1.738109 -1.399273,-3.137382 -3.137382,-3.137382 -0.881062,0 -1.63184,0.396169 -2.191447,0.984064 -2.583877,-1.861853 -5.441873,-3.171649 -8.411742,-3.930806 0.014,-0.145763 0.03994,-0.288334 0.03994,-0.437563 0,-3.4762132 -2.798552,-6.274764 -6.274764,-6.274764 z m 0,3.1373819 c 1.686471,0 3.043075,1.3206648 3.122857,2.9866861 -1.036699,-0.1293567 -2.079553,-0.1997178 -3.122857,-0.1997178 -1.043305,0 -2.086158,0.070361 -3.122857,0.1997178 0.07978,-1.6660213 1.436384,-2.9866861 3.122857,-2.9866861 z m -0.259633,9.9586461 c 4.844742,-0.06881 9.511013,1.825623 12.936254,5.252572 7.000362,7.001859 7.000362,18.353199 0,25.355057 -7.00186,7.000365 -18.351383,7.000365 -25.353242,0 -7.000363,-7.001858 -7.000363,-18.353198 0,-25.355057 3.29825,-3.299964 7.751851,-5.18393 12.416988,-5.252572 z" />
  <path
     style="fill:#ebdbb2;stroke-width:3.49998"
     d="m 28.331456,21 v 0.464842 14.984324 l 5.974605,5.974588 2.153311,2.153311 0.321299,0.321299 2.474603,-2.474599 2.4746,-2.4746 -0.328123,-0.328125 -2.146477,-2.14649 -3.923818,-3.923811 V 21.464842 21 Z"
     id="path2"
     sodipodi:nodetypes="cccccccccccccc" />
</svg>
