<?xml version="1.0" encoding="UTF-8" standalone="no"?>
<svg
   xmlns:dc="http://purl.org/dc/elements/1.1/"
   xmlns:cc="http://creativecommons.org/ns#"
   xmlns:rdf="http://www.w3.org/1999/02/22-rdf-syntax-ns#"
   xmlns:svg="http://www.w3.org/2000/svg"
   xmlns="http://www.w3.org/2000/svg"
   xmlns:sodipodi="http://sodipodi.sourceforge.net/DTD/sodipodi-0.dtd"
   xmlns:inkscape="http://www.inkscape.org/namespaces/inkscape"
   width="64"
   height="64"
   version="1.1"
   id="svg4"
   sodipodi:docname="brightness.svg"
   inkscape:version="1.0.2 (e86c870879, 2021-01-15, custom)"
   inkscape:export-filename="/home/eleuth/.config/smplayer/themes/Gruvbox/brightness.png"
   inkscape:export-xdpi="96"
   inkscape:export-ydpi="96">
  <metadata
     id="metadata10">
    <rdf:RDF>
      <cc:Work
         rdf:about="">
        <dc:format>image/svg+xml</dc:format>
        <dc:type
           rdf:resource="http://purl.org/dc/dcmitype/StillImage" />
        <dc:title></dc:title>
      </cc:Work>
    </rdf:RDF>
  </metadata>
  <defs
     id="defs8" />
  <sodipodi:namedview
     pagecolor="#ffffff"
     bordercolor="#666666"
     borderopacity="1"
     objecttolerance="10"
     gridtolerance="10"
     guidetolerance="10"
     inkscape:pageopacity="0"
     inkscape:pageshadow="2"
     inkscape:window-width="1376"
     inkscape:window-height="1060"
     id="namedview6"
     showgrid="true"
     inkscape:zoom="11.879985"
     inkscape:cx="37.944647"
     inkscape:cy="30.124895"
     inkscape:window-x="544"
     inkscape:window-y="20"
     inkscape:window-maximized="0"
     inkscape:current-layer="svg4"
     inkscape:document-rotation="0">
    <inkscape:grid
       type="xygrid"
       id="grid12" />
  </sodipodi:namedview>
  <path
     style="fill:#ebdbb2;stroke-width:4.12109"
     d="M 32.007182,1.9993642 22.982006,11.395435 H 11.40176 v 11.580247 l -9.3960709,9.025172 9.3960709,9.148804 v 11.456614 h 11.580246 l 9.025176,9.396074 9.148801,-9.396074 H 52.612597 V 41.149658 l 9.39607,-9.148804 -9.39607,-8.242167 V 11.395435 H 41.155983 Z m 0,13.5171548 c 9.107594,0 16.484333,7.37674 16.484333,16.484335 0,9.107595 -7.376742,16.484336 -16.484333,16.484336 -9.107598,0 -16.484339,-7.376741 -16.484339,-16.484336 0,-9.107595 7.376741,-16.484335 16.484339,-16.484335 z m 0,4.121083 c -6.828227,0 -12.363255,5.535028 -12.363255,12.363252 0,6.828224 5.535028,12.363249 12.363255,12.363249 6.828223,0 12.363246,-5.535025 12.363246,-12.363249 0,-6.828224 -5.535025,-12.363252 -12.363246,-12.363252 z"
     id="path2" />
</svg>
