<?xml version="1.0" encoding="UTF-8" standalone="no"?>
<svg
   xmlns:dc="http://purl.org/dc/elements/1.1/"
   xmlns:cc="http://creativecommons.org/ns#"
   xmlns:rdf="http://www.w3.org/1999/02/22-rdf-syntax-ns#"
   xmlns:svg="http://www.w3.org/2000/svg"
   xmlns="http://www.w3.org/2000/svg"
   xmlns:sodipodi="http://sodipodi.sourceforge.net/DTD/sodipodi-0.dtd"
   xmlns:inkscape="http://www.inkscape.org/namespaces/inkscape"
   style="isolation:isolate"
   viewBox="0 0 64 64"
   width="64"
   height="64"
   version="1.1"
   id="svg3"
   sodipodi:docname="cl_help.svg"
   inkscape:version="1.0.2 (e86c870879, 2021-01-15, custom)">
  <metadata
     id="metadata9">
    <rdf:RDF>
      <cc:Work
         rdf:about="">
        <dc:format>image/svg+xml</dc:format>
        <dc:type
           rdf:resource="http://purl.org/dc/dcmitype/StillImage" />
        <dc:title></dc:title>
      </cc:Work>
    </rdf:RDF>
  </metadata>
  <defs
     id="defs7" />
  <sodipodi:namedview
     pagecolor="#ffffff"
     bordercolor="#666666"
     borderopacity="1"
     objecttolerance="10"
     gridtolerance="10"
     guidetolerance="10"
     inkscape:pageopacity="0"
     inkscape:pageshadow="2"
     inkscape:window-width="1376"
     inkscape:window-height="1060"
     id="namedview5"
     showgrid="true"
     inkscape:zoom="11.453125"
     inkscape:cx="47.379447"
     inkscape:cy="34.308941"
     inkscape:window-x="544"
     inkscape:window-y="20"
     inkscape:window-maximized="0"
     inkscape:current-layer="svg3"
     inkscape:document-rotation="0">
    <inkscape:grid
       type="xygrid"
       id="grid11" />
  </sodipodi:namedview>
  <path
     d="M 32.010857,36.002714 H 48 V 40 H 32.010857 Z M 8.0271433,4.0244278 c -4.4289926,0 -7.99457125,3.5655788 -7.99457125,7.9945712 v 39.972858 c 0,4.428992 3.56557865,7.994571 7.99457125,7.994571 H 55.994572 c 4.428992,0 7.994571,-3.565579 7.994571,-7.994571 V 12.018999 c 0,-4.4289924 -3.565579,-7.9945712 -7.994571,-7.9945712 z M 19.680342,37.20319 c 0.52207,-0.149164 1.081434,-0.335615 1.566213,-0.596653 0.745817,-0.372905 1.41705,-0.857687 1.976414,-1.454338 0.55936,-0.596659 1.006848,-1.305182 1.267887,-2.088287 0.298325,-0.857689 0.484779,-1.789955 0.484779,-2.72223 0,-0.447486 -0.03729,-0.894976 -0.111872,-1.37976 -0.07458,-0.410197 -0.186454,-0.820399 -0.372907,-1.230596 C 24.37898,27.321129 24.19253,26.948222 24.006073,26.575315 23.81962,26.276986 23.633166,25.97866 23.409422,25.717625 23.185678,25.456587 22.96193,25.195552 22.700895,24.971808 22.40257,24.710773 22.10424,24.449738 21.768624,24.22599 c -0.335616,-0.223744 -0.633941,-0.410197 -0.969561,-0.596651 -0.261031,-0.149162 -0.52207,-0.298325 -0.783105,-0.410197 -0.223744,-0.111876 -0.484778,-0.223744 -0.745817,-0.33562 -0.335616,-0.149163 -0.671232,-0.261035 -1.006849,-0.410198 -0.633945,-0.223744 -1.230596,-0.522073 -1.827251,-0.820399 -0.298325,-0.149162 -0.596655,-0.335616 -0.89498,-0.522069 -0.149163,-0.149163 -0.298325,-0.298326 -0.410197,-0.484783 -0.07458,-0.149163 -0.111872,-0.335616 -0.111872,-0.55936 0,-0.186454 0.03729,-0.335616 0.111871,-0.52207 0.03729,-0.111874 0.111872,-0.223743 0.223744,-0.298329 0.149164,-0.111872 0.298325,-0.186454 0.447488,-0.261036 0.33562,-0.07458 0.671236,-0.149164 1.006852,-0.149164 0.29833,0 0.633946,0.07458 0.932271,0.149164 0.186454,0.0373 0.372907,0.149164 0.55936,0.261036 0.186457,0.149167 0.372911,0.298329 0.522074,0.484783 0.149164,0.149161 0.261036,0.335616 0.335616,0.55936 0.111872,0.261036 0.298329,0.447488 0.559364,0.559364 0.261036,0.149164 0.55936,0.149164 0.820399,0.07458 L 23.29755,20.01213 c 0.298326,-0.111872 0.52207,-0.298326 0.633942,-0.559365 0.149162,-0.223744 0.186453,-0.522069 0.111872,-0.820395 C 23.85691,18.073008 23.633166,17.513648 23.29755,16.991575 22.999221,16.506796 22.626314,16.022017 22.178822,15.611815 21.731333,15.201618 21.209264,14.866002 20.687194,14.604963 20.351575,14.4558 20.015958,14.306638 19.680342,14.194766 v -2.647647 h -5.258005 v 2.573065 c -0.484779,0.149163 -0.969558,0.335616 -1.454341,0.559361 -0.671236,0.33562 -1.267887,0.820398 -1.789956,1.379763 -0.484783,0.55936 -0.89498,1.193305 -1.156015,1.901828 -0.2610351,0.671236 -0.4102018,1.41705 -0.4102018,2.162868 0,0.447488 0.037295,0.857689 0.1118745,1.305177 0.074582,0.372907 0.1864538,0.783109 0.3356163,1.118725 0.149161,0.372906 0.335616,0.708523 0.52207,1.044143 0.149161,0.261035 0.335615,0.522069 0.559364,0.783108 0.223743,0.223743 0.447488,0.447488 0.671232,0.633941 0.298325,0.261036 0.633945,0.484783 0.969561,0.708527 0.298326,0.186454 0.596655,0.372907 0.932271,0.559361 0.223744,0.149164 0.484779,0.261035 0.708523,0.37291 0.223749,0.07458 0.447492,0.186451 0.671236,0.26103 0.372907,0.149167 0.708523,0.298329 1.044143,0.447492 0.633942,0.223744 1.193306,0.52207 1.789957,0.820399 0.33562,0.186454 0.671236,0.447488 0.969562,0.671232 0.223743,0.186454 0.410197,0.447493 0.522069,0.671236 0.111877,0.298326 0.186457,0.559362 0.186457,0.857693 0,0.335615 -0.07458,0.67123 -0.186457,0.969555 -0.07458,0.223761 -0.186454,0.372914 -0.372907,0.522075 -0.186453,0.186462 -0.410197,0.298325 -0.633941,0.372907 -0.372911,0.111866 -0.783108,0.186463 -1.156015,0.186463 -0.372911,0 -0.745818,-0.07457 -1.081434,-0.186463 -0.335619,-0.0746 -0.633944,-0.26103 -0.894979,-0.447492 -0.298325,-0.186463 -0.55936,-0.44749 -0.783108,-0.745815 -0.261036,-0.298326 -0.447488,-0.67123 -0.633941,-1.044141 -0.111872,-0.26103 -0.298326,-0.484779 -0.559365,-0.596651 -0.298325,-0.111871 -0.55936,-0.111871 -0.857685,0 l -2.796809,1.044141 c -0.2610388,0.0746 -0.484783,0.298325 -0.5966549,0.559361 -0.1491613,0.26103 -0.1491613,0.559364 -0.074582,0.8204 0.2610358,0.708523 0.5593604,1.379759 0.9695618,1.976409 0.4101971,0.596651 0.8949761,1.156015 1.4170501,1.640798 0.55936,0.447489 1.156015,0.857686 1.789956,1.193304 0.410202,0.186463 0.85769,0.335618 1.267887,0.484779 V 40 h 5.258006 z"
     fill-rule="evenodd"
     id="Compound Shape"
     fill="#ebdbb2"
     style="stroke-width:3.99729" />
</svg>
