<?xml version="1.0" encoding="UTF-8" standalone="no"?>
<svg
   xmlns:dc="http://purl.org/dc/elements/1.1/"
   xmlns:cc="http://creativecommons.org/ns#"
   xmlns:rdf="http://www.w3.org/1999/02/22-rdf-syntax-ns#"
   xmlns:svg="http://www.w3.org/2000/svg"
   xmlns="http://www.w3.org/2000/svg"
   xmlns:sodipodi="http://sodipodi.sourceforge.net/DTD/sodipodi-0.dtd"
   xmlns:inkscape="http://www.inkscape.org/namespaces/inkscape"
   width="64"
   height="64"
   version="1.1"
   id="svg4"
   sodipodi:docname="clear_left.svg"
   inkscape:version="1.0.2 (e86c870879, 2021-01-15, custom)"
   inkscape:export-filename="/home/eleuth/.config/smplayer/themes/Gruvbox/clear_left.png"
   inkscape:export-xdpi="96"
   inkscape:export-ydpi="96">
  <metadata
     id="metadata10">
    <rdf:RDF>
      <cc:Work
         rdf:about="">
        <dc:format>image/svg+xml</dc:format>
        <dc:type
           rdf:resource="http://purl.org/dc/dcmitype/StillImage" />
        <dc:title></dc:title>
      </cc:Work>
    </rdf:RDF>
  </metadata>
  <defs
     id="defs8" />
  <sodipodi:namedview
     pagecolor="#ffffff"
     bordercolor="#666666"
     borderopacity="1"
     objecttolerance="10"
     gridtolerance="10"
     guidetolerance="10"
     inkscape:pageopacity="0"
     inkscape:pageshadow="2"
     inkscape:window-width="1376"
     inkscape:window-height="1060"
     id="namedview6"
     showgrid="true"
     inkscape:zoom="11.453125"
     inkscape:cx="48.335378"
     inkscape:cy="35.503999"
     inkscape:window-x="544"
     inkscape:window-y="20"
     inkscape:window-maximized="0"
     inkscape:current-layer="svg4"
     inkscape:document-rotation="0">
    <inkscape:grid
       type="xygrid"
       id="grid12" />
  </sodipodi:namedview>
  <path
     style="fill:#ebdbb2;stroke-width:4"
     d="M 20.054688,8.0000002 0.054688,32 l 20,24 h 44 V 8.0000002 Z m 8,11.9999998 h 4 c 1.108,0 2.105126,0.448875 2.828125,1.171875 l 5.171875,5.171876 5.171875,-5.171876 C 45.906563,20.447875 46.903439,20 48.023439,20 h 4 v 4 c 0,1.108 -0.448876,2.105125 -1.171875,2.828125 L 45.656253,32 50.828125,37.171875 C 51.551124,37.894877 52,38.892 52,40 v 4 h -4 c -1.108,0 -2.105123,-0.448876 -2.828125,-1.171872 L 40,37.65625 34.828125,42.828128 C 34.188125,43.552125 33.190313,44 32.070313,44 h -4 v -4 c 0,-1.108 0.448875,-2.105123 1.171875,-2.828125 L 34.437501,32 29.242188,26.828125 C 28.522188,26.104125 28.078126,25.108 28.078126,24 Z"
     id="path2" />
</svg>
