<?xml version="1.0" encoding="UTF-8" standalone="no"?>
<svg
   xmlns:dc="http://purl.org/dc/elements/1.1/"
   xmlns:cc="http://creativecommons.org/ns#"
   xmlns:rdf="http://www.w3.org/1999/02/22-rdf-syntax-ns#"
   xmlns:svg="http://www.w3.org/2000/svg"
   xmlns="http://www.w3.org/2000/svg"
   xmlns:sodipodi="http://sodipodi.sourceforge.net/DTD/sodipodi-0.dtd"
   xmlns:inkscape="http://www.inkscape.org/namespaces/inkscape"
   width="64"
   height="64"
   version="1.1"
   id="svg4"
   sodipodi:docname="contrast.svg"
   inkscape:version="1.0.2 (e86c870879, 2021-01-15, custom)"
   inkscape:export-filename="/home/eleuth/.config/smplayer/themes/Gruvbox/contrast.png"
   inkscape:export-xdpi="96"
   inkscape:export-ydpi="96">
  <metadata
     id="metadata10">
    <rdf:RDF>
      <cc:Work
         rdf:about="">
        <dc:format>image/svg+xml</dc:format>
        <dc:type
           rdf:resource="http://purl.org/dc/dcmitype/StillImage" />
        <dc:title></dc:title>
      </cc:Work>
    </rdf:RDF>
  </metadata>
  <defs
     id="defs8" />
  <sodipodi:namedview
     pagecolor="#ffffff"
     bordercolor="#666666"
     borderopacity="1"
     objecttolerance="10"
     gridtolerance="10"
     guidetolerance="10"
     inkscape:pageopacity="0"
     inkscape:pageshadow="2"
     inkscape:window-width="1376"
     inkscape:window-height="1060"
     id="namedview6"
     showgrid="true"
     inkscape:zoom="11.313709"
     inkscape:cx="61.163642"
     inkscape:cy="32.529861"
     inkscape:window-x="544"
     inkscape:window-y="20"
     inkscape:window-maximized="0"
     inkscape:current-layer="svg4"
     inkscape:document-rotation="0">
    <inkscape:grid
       type="xygrid"
       id="grid12" />
  </sodipodi:namedview>
  <path
     style="fill:#ebdbb2;stroke-width:4.00042"
     d="m 28.002966,0 v 8.0008471 h 8.000845 V 0 H 34.0036 30.003177 Z m -15.79855,6.5475687 -1.390771,1.3907718 -0.06251,-0.062507 -2.8753039,2.8753045 0.062507,0.06251 -1.3907719,1.390771 5.6568478,5.65685 5.656849,-5.65685 z m 39.597945,0 -5.656852,5.6568473 5.656852,5.65685 5.656845,-5.65685 -1.39077,-1.390771 0.0625,-0.06252 -2.875308,-2.8753049 -0.06249,0.062506 z M 32.003388,12.00127 c -11.046769,0 -20.002118,8.955349 -20.002118,20.002118 0,11.046771 8.955349,20.002118 20.002118,20.002118 11.046771,0 20.002118,-8.955347 20.002118,-20.002118 0,-11.046769 -8.955347,-20.002118 -20.002118,-20.002118 z m 0,8.000848 V 44.004659 A 12.00127,12.00127 0 0 1 20.002118,32.003388 12.00127,12.00127 0 0 1 32.003388,20.002118 Z M 0,28.002966 v 2.000211 4.000423 2.000211 h 8.0008471 v -8.000845 z m 56.005929,0 v 8.000845 h 8.000848 V 34.0036 30.003177 28.002966 Z m -43.801513,18.142545 -5.6568473,5.65685 1.3907718,1.390771 -0.062506,0.0625 2.8753045,2.875307 0.06252,-0.06253 1.390771,1.39077 5.65685,-5.656845 z m 39.597945,0 -5.656852,5.65685 5.656852,5.656845 1.390771,-1.39077 0.06253,0.06252 2.875304,-2.875309 -0.06253,-0.06252 1.39077,-1.390771 z m -23.799395,9.860418 v 8.000848 h 2.000211 4.000423 2.000211 v -8.000848 z"
     id="path2" />
</svg>
