<?xml version="1.0" encoding="UTF-8" standalone="no"?>
<svg
   xmlns:dc="http://purl.org/dc/elements/1.1/"
   xmlns:cc="http://creativecommons.org/ns#"
   xmlns:rdf="http://www.w3.org/1999/02/22-rdf-syntax-ns#"
   xmlns:svg="http://www.w3.org/2000/svg"
   xmlns="http://www.w3.org/2000/svg"
   xmlns:sodipodi="http://sodipodi.sourceforge.net/DTD/sodipodi-0.dtd"
   xmlns:inkscape="http://www.inkscape.org/namespaces/inkscape"
   width="64"
   height="64"
   version="1.1"
   id="svg4"
   sodipodi:docname="faq.svg"
   inkscape:version="1.0.2 (e86c870879, 2021-01-15, custom)"
   inkscape:export-filename="/home/eleuth/.config/smplayer/themes/Gruvbox/faq.png"
   inkscape:export-xdpi="96"
   inkscape:export-ydpi="96">
  <metadata
     id="metadata10">
    <rdf:RDF>
      <cc:Work
         rdf:about="">
        <dc:format>image/svg+xml</dc:format>
        <dc:type
           rdf:resource="http://purl.org/dc/dcmitype/StillImage" />
        <dc:title></dc:title>
      </cc:Work>
    </rdf:RDF>
  </metadata>
  <defs
     id="defs8" />
  <sodipodi:namedview
     pagecolor="#ffffff"
     bordercolor="#666666"
     borderopacity="1"
     objecttolerance="10"
     gridtolerance="10"
     guidetolerance="10"
     inkscape:pageopacity="0"
     inkscape:pageshadow="2"
     inkscape:window-width="1376"
     inkscape:window-height="1060"
     id="namedview6"
     showgrid="true"
     inkscape:zoom="8.0985824"
     inkscape:cx="33.649903"
     inkscape:cy="23.786836"
     inkscape:window-x="544"
     inkscape:window-y="20"
     inkscape:window-maximized="0"
     inkscape:current-layer="svg4">
    <inkscape:grid
       type="xygrid"
       id="grid12" />
  </sodipodi:namedview>
  <path
     style="fill:#ebdbb2;stroke-width:3.91667"
     d="M 31.884948,5 C 23.229114,5 16.218281,12.010833 16.218281,20.666667 h 7.833333 c 0,-4.308334 3.525,-7.833334 7.833334,-7.833334 4.308333,0 7.833333,3.525 7.833333,7.833334 0,2.154166 -0.861056,4.113111 -2.310222,5.523111 l -4.857584,4.934083 c -2.82,2.859167 -4.582194,6.776139 -4.582194,11.084472 v 1.958334 h 7.833333 c 0,-5.875 1.762195,-8.225306 4.582195,-11.084473 l 3.526527,-3.603027 c 2.2325,-2.2325 3.641278,-5.365834 3.641278,-8.8125 C 47.551614,12.010833 40.540781,5 31.884948,5 Z m -3.916667,47 v 7.833333 h 7.833333 V 52 Z"
     id="path2" />
</svg>
