<?xml version="1.0" encoding="UTF-8" standalone="no"?>
<svg
   xmlns:dc="http://purl.org/dc/elements/1.1/"
   xmlns:cc="http://creativecommons.org/ns#"
   xmlns:rdf="http://www.w3.org/1999/02/22-rdf-syntax-ns#"
   xmlns:svg="http://www.w3.org/2000/svg"
   xmlns="http://www.w3.org/2000/svg"
   xmlns:sodipodi="http://sodipodi.sourceforge.net/DTD/sodipodi-0.dtd"
   xmlns:inkscape="http://www.inkscape.org/namespaces/inkscape"
   width="64"
   height="64"
   version="1.1"
   id="svg4"
   sodipodi:docname="favorite-folder.svg"
   inkscape:version="1.0.2 (e86c870879, 2021-01-15, custom)"
   inkscape:export-filename="/home/eleuth/.config/smplayer/themes/Gruvbox/favorite-folder.png"
   inkscape:export-xdpi="96"
   inkscape:export-ydpi="96">
  <metadata
     id="metadata10">
    <rdf:RDF>
      <cc:Work
         rdf:about="">
        <dc:format>image/svg+xml</dc:format>
        <dc:type
           rdf:resource="http://purl.org/dc/dcmitype/StillImage" />
        <dc:title></dc:title>
      </cc:Work>
    </rdf:RDF>
  </metadata>
  <defs
     id="defs8" />
  <sodipodi:namedview
     pagecolor="#ffffff"
     bordercolor="#666666"
     borderopacity="1"
     objecttolerance="10"
     gridtolerance="10"
     guidetolerance="10"
     inkscape:pageopacity="0"
     inkscape:pageshadow="2"
     inkscape:window-width="1376"
     inkscape:window-height="1060"
     id="namedview6"
     showgrid="true"
     inkscape:zoom="11.453125"
     inkscape:cx="42.645168"
     inkscape:cy="26.769295"
     inkscape:window-x="544"
     inkscape:window-y="20"
     inkscape:window-maximized="0"
     inkscape:current-layer="svg4">
    <inkscape:grid
       type="xygrid"
       id="grid12" />
  </sodipodi:namedview>
  <path
     style="fill:#ebdbb2;stroke-width:4"
     d="M 15.90625,4 C 10.874249,4.06 7.191687,3.882875 4.179687,5.5468752 2.619687,6.4308752 1.428312,7.84325 0.820312,9.53125 0.164312,11.28325 -0.070313,13.372 -0.070313,16 v 32 c 0,2.632001 0.230625,4.716752 0.890625,6.468752 0.6560001,1.755996 1.8513749,3.160184 3.359375,3.992184 3.008,1.664 6.694562,1.479064 11.726563,1.539064 h 32.046873 c 5.032,-0.06 8.714564,0.120915 11.726564,-1.539064 1.504,-0.828 2.699376,-2.240184 3.359376,-3.992184 C 63.695063,52.716747 63.929687,50.628 63.929687,48 V 24 c 0,-2.632 -0.23064,-4.71675 -0.890624,-6.46875 -0.08001,-0.22 -0.19288,-0.417188 -0.29688,-0.617188 L 62.632806,16.6875 C 61.984811,15.3675 60.955687,14.271062 59.679687,13.539062 56.667687,11.875062 52.985123,12.06 47.953123,12 H 35.796875 L 27.710937,4 H 15.914062 Z M 32,16 36.890624,26.539062 47.929687,28.257812 39.890625,36.429688 41.710934,48 31.84375,42.5 21.929687,47.9375 23.890624,36.375 15.929687,28.156251 26.999999,26.5 Z"
     id="path2" />
</svg>
