<?xml version="1.0" encoding="UTF-8" standalone="no"?>
<svg
   xmlns:dc="http://purl.org/dc/elements/1.1/"
   xmlns:cc="http://creativecommons.org/ns#"
   xmlns:rdf="http://www.w3.org/1999/02/22-rdf-syntax-ns#"
   xmlns:svg="http://www.w3.org/2000/svg"
   xmlns="http://www.w3.org/2000/svg"
   xmlns:sodipodi="http://sodipodi.sourceforge.net/DTD/sodipodi-0.dtd"
   xmlns:inkscape="http://www.inkscape.org/namespaces/inkscape"
   width="64"
   height="64"
   version="1.1"
   id="svg4"
   sodipodi:docname="gamma.svg"
   inkscape:version="1.0.2 (e86c870879, 2021-01-15, custom)"
   inkscape:export-filename="/home/eleuth/.config/smplayer/themes/Gruvbox/gamma.png"
   inkscape:export-xdpi="96"
   inkscape:export-ydpi="96">
  <metadata
     id="metadata10">
    <rdf:RDF>
      <cc:Work
         rdf:about="">
        <dc:format>image/svg+xml</dc:format>
        <dc:type
           rdf:resource="http://purl.org/dc/dcmitype/StillImage" />
        <dc:title></dc:title>
      </cc:Work>
    </rdf:RDF>
  </metadata>
  <defs
     id="defs8" />
  <sodipodi:namedview
     pagecolor="#ffffff"
     bordercolor="#666666"
     borderopacity="1"
     objecttolerance="10000"
     gridtolerance="10000"
     guidetolerance="10000"
     inkscape:pageopacity="0"
     inkscape:pageshadow="2"
     inkscape:window-width="1376"
     inkscape:window-height="470"
     id="namedview6"
     showgrid="true"
     inkscape:zoom="8.0985824"
     inkscape:cx="39.621572"
     inkscape:cy="30.524216"
     inkscape:window-x="544"
     inkscape:window-y="20"
     inkscape:window-maximized="0"
     inkscape:current-layer="svg4">
    <inkscape:grid
       type="xygrid"
       id="grid12" />
  </sodipodi:namedview>
  <path
     style="fill:#ebdbb2;stroke-width:4.00653"
     d="m 49.396459,26.406888 -0.152248,0.256418 c 0.376613,1.654695 0.572933,3.345449 0.580946,5.044216 -0.008,1.242023 -0.112183,2.484047 -0.320522,3.706037 3.50571,1.225997 5.853534,4.53138 5.857541,8.241423 0,4.827864 -3.914376,8.74224 -8.74224,8.74224 -2.163524,-0.004 -4.246917,-0.813325 -5.849528,-2.263687 -2.391896,1.855022 -5.12034,3.22926 -8.037091,4.042586 l -0.02003,0.03606 c 3.29737,4.355094 8.445756,6.919271 13.906651,6.927284 9.655728,0 17.48448,-7.828753 17.48448,-17.48448 -0.004,-8.577972 -6.234155,-15.885875 -14.707957,-17.248094 v 0 0 z m -34.780652,0.02805 C 6.1900826,27.833211 0.01201958,35.117077 0,43.654983 c 0,4.635551 1.8430019,9.082794 5.1203402,12.36414 3.2773382,3.277338 7.7245818,5.120339 12.3641388,5.120339 5.460895,-0.004 10.605275,-2.56017 13.906652,-6.911256 -2.964829,-0.777266 -5.745358,-2.131473 -8.181326,-3.986495 -1.586584,1.382253 -3.621899,2.151505 -5.725326,2.155511 -4.827863,0 -8.7422393,-3.914376 -8.7422393,-8.74224 0,-3.601866 2.2075953,-6.835133 5.5650643,-8.145267 -0.208339,-1.254042 -0.316515,-2.528118 -0.316515,-3.802193 0.004,-1.774891 0.216352,-3.545775 0.625018,-5.272588 v 0 0 z M 32.052208,2.8605355 c -9.655728,0 -17.48448,7.8287515 -17.48448,17.4844795 0.01202,1.943165 0.344562,3.870304 0.985606,5.701287 2.219615,-2.227629 4.867929,-3.982487 7.78468,-5.160406 -0.01202,-0.180293 -0.02404,-0.360587 -0.02805,-0.540881 0,-4.827863 3.914376,-8.74224 8.74224,-8.74224 4.827864,0 8.742239,3.914377 8.742239,8.74224 -0.004,0.184301 -0.01603,0.364594 -0.02804,0.548894 2.916751,1.169906 5.565064,2.924764 7.788686,5.148386 0.641044,-1.830982 0.973586,-3.758121 0.981599,-5.69728 0,-4.63555 -1.843002,-9.082794 -5.12034,-12.3641393 C 41.135002,4.7035374 36.687758,2.8605355 32.052208,2.8605355 Z M 26.226719,20.345015 c 0,-3.217241 2.608248,-5.829495 5.825489,-5.829495 3.21724,0 5.829495,2.612254 5.829495,5.829495 0,3.217241 -2.612255,5.825489 -5.829495,5.825489 -3.217241,0 -5.825489,-2.608248 -5.825489,-5.825489 z M 11.654984,43.654983 c 0,-3.21724 2.612255,-5.825488 5.829495,-5.825488 3.217241,0 5.825489,2.608248 5.825489,5.825488 0,3.217241 -2.608248,5.829496 -5.825489,5.829496 -3.21724,0 -5.829495,-2.612255 -5.829495,-5.829496 z m 29.139463,0 c 0,-3.21724 2.608249,-5.825488 5.825489,-5.825488 3.217241,0 5.829496,2.608248 5.829496,5.825488 0,3.217241 -2.612255,5.829496 -5.829496,5.829496 -3.21724,0 -5.825489,-2.612255 -5.825489,-5.829496 z"
     id="path2" />
</svg>
