<?xml version="1.0" encoding="UTF-8" standalone="no"?>
<svg
   xmlns:dc="http://purl.org/dc/elements/1.1/"
   xmlns:cc="http://creativecommons.org/ns#"
   xmlns:rdf="http://www.w3.org/1999/02/22-rdf-syntax-ns#"
   xmlns:svg="http://www.w3.org/2000/svg"
   xmlns="http://www.w3.org/2000/svg"
   xmlns:sodipodi="http://sodipodi.sourceforge.net/DTD/sodipodi-0.dtd"
   xmlns:inkscape="http://www.inkscape.org/namespaces/inkscape"
   style="isolation:isolate"
   viewBox="0 0 64 64"
   width="64"
   height="64"
   version="1.1"
   id="svg3"
   sodipodi:docname="input_devices.svg"
   inkscape:version="1.0.2 (e86c870879, 2021-01-15, custom)"
   inkscape:export-filename="/home/eleuth/.config/smplayer/themes/Gruvbox/input_devices.png"
   inkscape:export-xdpi="96"
   inkscape:export-ydpi="96">
  <metadata
     id="metadata9">
    <rdf:RDF>
      <cc:Work
         rdf:about="">
        <dc:format>image/svg+xml</dc:format>
        <dc:type
           rdf:resource="http://purl.org/dc/dcmitype/StillImage" />
        <dc:title></dc:title>
      </cc:Work>
    </rdf:RDF>
  </metadata>
  <defs
     id="defs7" />
  <sodipodi:namedview
     pagecolor="#ffffff"
     bordercolor="#666666"
     borderopacity="1"
     objecttolerance="10"
     gridtolerance="10"
     guidetolerance="10"
     inkscape:pageopacity="0"
     inkscape:pageshadow="2"
     inkscape:window-width="1376"
     inkscape:window-height="470"
     id="namedview5"
     showgrid="true"
     inkscape:zoom="11.453125"
     inkscape:cx="28.043567"
     inkscape:cy="33.132985"
     inkscape:window-x="544"
     inkscape:window-y="20"
     inkscape:window-maximized="0"
     inkscape:current-layer="svg3">
    <inkscape:grid
       type="xygrid"
       id="grid11" />
  </sodipodi:namedview>
  <path
     d="m 28.8,0 -6.4,12.8 h 6.4 v 28.7125 c -1.636916,-1.039748 -3.325584,-1.956544 -4.9625,-2.775 -2.4,-1.2 -4.617384,-2.358204 -5.9875,-3.5 C 16.479884,34.095704 16,33.3333 16,32 c 3.534572,0 6.4,-2.865332 6.4,-6.4 0,-3.534668 -2.865428,-6.4 -6.4,-6.4 -3.534572,0 -6.4,2.865332 -6.4,6.4 V 32 c 0,3.4667 1.920116,6.304296 4.15,8.1625 2.229884,1.858204 4.825,3.1 7.225,4.3 2.4,1.2 4.604884,2.358204 5.975,3.5 1.370116,1.141796 1.85,1.9042 1.85,3.2375 -1.772852,0 -3.2,1.427248 -3.2,3.2 v 6.4 c 0,1.772752 1.427148,3.2 3.2,3.2 h 6.4 c 1.772852,0 3.2,-1.427248 3.2,-3.2 v -6.4 c 0,-1.772752 -1.427148,-3.2 -3.2,-3.2 v -6.4 c 0,-1.3333 0.48008,-2.095704 1.85,-3.2375 1.370116,-1.141796 3.5875,-2.3 5.9875,-3.5 2.4,-1.2 4.982616,-2.441796 7.2125,-4.3 C 52.479884,31.904296 54.4,29.0667 54.4,25.6 V 22.4 16 c 0,-1.772752 -1.427148,-3.2 -3.2,-3.2 h -6.4 c -1.772852,0 -3.2,1.427248 -3.2,3.2 v 6.4 c 0,1.772752 1.427148,3.2 3.2,3.2 H 48 c 0,1.3333 -0.48008,2.095704 -1.85,3.2375 -1.370116,1.141796 -3.575,2.3 -5.975,3.5 -1.638868,0.819432 -3.332616,1.733692 -4.975,2.775 V 12.8 h 6.4 L 35.2,0 Z"
     id="Path"
     fill="#ebdbb2"
     style="stroke-width:4" />
</svg>
