<?xml version="1.0" encoding="UTF-8" standalone="no"?>
<svg
   xmlns:dc="http://purl.org/dc/elements/1.1/"
   xmlns:cc="http://creativecommons.org/ns#"
   xmlns:rdf="http://www.w3.org/1999/02/22-rdf-syntax-ns#"
   xmlns:svg="http://www.w3.org/2000/svg"
   xmlns="http://www.w3.org/2000/svg"
   xmlns:sodipodi="http://sodipodi.sourceforge.net/DTD/sodipodi-0.dtd"
   xmlns:inkscape="http://www.inkscape.org/namespaces/inkscape"
   width="64"
   height="64"
   version="1.1"
   id="svg4"
   sodipodi:docname="license.svg"
   inkscape:export-filename="/home/eleuth/.config/smplayer/themes/Gruvbox/license.png"
   inkscape:export-xdpi="96"
   inkscape:export-ydpi="96"
   inkscape:version="1.0.2 (e86c870879, 2021-01-15, custom)">
  <metadata
     id="metadata10">
    <rdf:RDF>
      <cc:Work
         rdf:about="">
        <dc:format>image/svg+xml</dc:format>
        <dc:type
           rdf:resource="http://purl.org/dc/dcmitype/StillImage" />
        <dc:title></dc:title>
      </cc:Work>
    </rdf:RDF>
  </metadata>
  <defs
     id="defs8" />
  <sodipodi:namedview
     pagecolor="#ffffff"
     bordercolor="#666666"
     borderopacity="1"
     objecttolerance="10"
     gridtolerance="10"
     guidetolerance="10"
     inkscape:pageopacity="0"
     inkscape:pageshadow="2"
     inkscape:window-width="1376"
     inkscape:window-height="1060"
     id="namedview6"
     showgrid="true"
     inkscape:zoom="11.453125"
     inkscape:cx="30.023032"
     inkscape:cy="30.262876"
     inkscape:window-x="544"
     inkscape:window-y="20"
     inkscape:window-maximized="0"
     inkscape:current-layer="svg4">
    <inkscape:grid
       type="xygrid"
       id="grid12" />
  </sodipodi:namedview>
  <path
     style="fill:#ebdbb2;stroke-width:3.85713"
     d="M 31.999945,5 C 17.088634,5 4.9999998,17.088634 4.9999998,31.999944 c 0,14.911313 12.0886342,26.999944 26.9999452,26.999944 14.911308,0 26.999944,-12.088631 26.999944,-26.999944 C 58.999889,17.088634 46.911253,5 31.999945,5 Z m 0,7.71427 c 10.649283,0 19.285674,8.634848 19.285674,19.285674 0,10.649283 -8.636391,19.285674 -19.285674,19.285674 -10.650827,0 -19.285675,-8.636391 -19.285675,-19.285674 0,-10.650826 8.634848,-19.285674 19.285675,-19.285674 z m 0,7.714269 a 11.571115,11.571115 0 0 0 -11.571406,11.571405 11.571115,11.571115 0 0 0 11.571406,11.571404 11.571115,11.571115 0 0 0 9.243562,-4.633082 l -3.081188,-2.312773 a 7.7140768,7.7140768 0 0 1 -6.162374,3.08872 7.7140768,7.7140768 0 0 1 -7.71427,-7.714269 7.7140768,7.7140768 0 0 1 7.71427,-7.71427 7.7140768,7.7140768 0 0 1 6.169907,3.088725 l 3.073655,-2.312777 a 11.571115,11.571115 0 0 0 -9.243562,-4.633083 z"
     id="path2" />
</svg>
