<?xml version="1.0" encoding="UTF-8" standalone="no"?>
<svg
   xmlns:dc="http://purl.org/dc/elements/1.1/"
   xmlns:cc="http://creativecommons.org/ns#"
   xmlns:rdf="http://www.w3.org/1999/02/22-rdf-syntax-ns#"
   xmlns:svg="http://www.w3.org/2000/svg"
   xmlns="http://www.w3.org/2000/svg"
   xmlns:sodipodi="http://sodipodi.sourceforge.net/DTD/sodipodi-0.dtd"
   xmlns:inkscape="http://www.inkscape.org/namespaces/inkscape"
   width="64"
   height="64"
   version="1.1"
   id="svg4"
   sodipodi:docname="ontop.svg"
   inkscape:version="1.0.2 (e86c870879, 2021-01-15, custom)"
   inkscape:export-filename="/home/eleuth/.config/smplayer/themes/Gruvbox/ontop.png"
   inkscape:export-xdpi="96"
   inkscape:export-ydpi="96">
  <metadata
     id="metadata10">
    <rdf:RDF>
      <cc:Work
         rdf:about="">
        <dc:format>image/svg+xml</dc:format>
        <dc:type
           rdf:resource="http://purl.org/dc/dcmitype/StillImage" />
        <dc:title></dc:title>
      </cc:Work>
    </rdf:RDF>
  </metadata>
  <defs
     id="defs8" />
  <sodipodi:namedview
     pagecolor="#ffffff"
     bordercolor="#666666"
     borderopacity="1"
     objecttolerance="10"
     gridtolerance="10"
     guidetolerance="10"
     inkscape:pageopacity="0"
     inkscape:pageshadow="2"
     inkscape:window-width="1376"
     inkscape:window-height="470"
     id="namedview6"
     showgrid="true"
     inkscape:zoom="8.0985824"
     inkscape:cx="30.630485"
     inkscape:cy="25.580834"
     inkscape:window-x="544"
     inkscape:window-y="20"
     inkscape:window-maximized="0"
     inkscape:current-layer="svg4">
    <inkscape:grid
       type="xygrid"
       id="grid12" />
  </sodipodi:namedview>
  <path
     style="fill:#ebdbb2;stroke-width:3.92821"
     d="m 26.681914,5.0039062 c -1.96411,0 -1.96411,1.9641098 -1.96411,1.9641098 v 31.425756 c 0,1.96411 1.96411,1.96411 1.96411,1.96411 h 35.353977 c 0,0 1.964109,0 1.964109,-1.96411 V 6.968016 C 64,5.0039062 62.035891,5.0039062 62.035891,5.0039062 Z m 5.89233,11.7846588 H 56.143561 V 32.486098 H 32.574244 Z M 7.1175382,24.645003 c 0,0 -2.0408317,0 -2.0408317,1.96411 V 58.03487 c 0,1.964109 1.9641098,1.964109 1.9641098,1.964109 H 42.394792 c 0,0 1.96411,-0.09145 1.96411,-1.964109 V 44.293773 h -7.856439 v 7.856439 H 12.933145 v -15.72055 h 7.85644 V 24.645003 Z"
     id="path2" />
</svg>
