<?xml version="1.0" encoding="UTF-8" standalone="no"?>
<svg
   xmlns:dc="http://purl.org/dc/elements/1.1/"
   xmlns:cc="http://creativecommons.org/ns#"
   xmlns:rdf="http://www.w3.org/1999/02/22-rdf-syntax-ns#"
   xmlns:svg="http://www.w3.org/2000/svg"
   xmlns="http://www.w3.org/2000/svg"
   xmlns:sodipodi="http://sodipodi.sourceforge.net/DTD/sodipodi-0.dtd"
   xmlns:inkscape="http://www.inkscape.org/namespaces/inkscape"
   width="64"
   height="64"
   version="1.1"
   id="svg4"
   sodipodi:docname="pref_network.svg"
   inkscape:version="1.0.2 (e86c870879, 2021-01-15, custom)"
   inkscape:export-filename="/home/eleuth/.config/smplayer/themes/Gruvbox/pref_network.png"
   inkscape:export-xdpi="96"
   inkscape:export-ydpi="96">
  <metadata
     id="metadata10">
    <rdf:RDF>
      <cc:Work
         rdf:about="">
        <dc:format>image/svg+xml</dc:format>
        <dc:type
           rdf:resource="http://purl.org/dc/dcmitype/StillImage" />
        <dc:title></dc:title>
      </cc:Work>
    </rdf:RDF>
  </metadata>
  <defs
     id="defs8" />
  <sodipodi:namedview
     pagecolor="#ffffff"
     bordercolor="#666666"
     borderopacity="1"
     objecttolerance="10"
     gridtolerance="10"
     guidetolerance="10"
     inkscape:pageopacity="0"
     inkscape:pageshadow="2"
     inkscape:window-width="1376"
     inkscape:window-height="470"
     id="namedview6"
     showgrid="true"
     inkscape:zoom="11.453125"
     inkscape:cx="35.10577"
     inkscape:cy="31.549452"
     inkscape:window-x="544"
     inkscape:window-y="20"
     inkscape:window-maximized="0"
     inkscape:current-layer="svg4">
    <inkscape:grid
       type="xygrid"
       id="grid12" />
  </sodipodi:namedview>
  <path
     style="fill:#ebdbb2;stroke-width:3.8569"
     d="M 31.998315,5 C 17.087531,5 5,17.087531 5,31.998315 5,46.909098 17.087531,58.99663 31.998315,58.99663 46.909098,58.99663 58.99663,46.909098 58.99663,31.998315 58.99663,17.087531 46.909098,5 31.998315,5 Z m -1.928451,7.472748 c 0.258027,-0.02699 0.583357,0.01542 0.843697,0 0.03086,0.123421 -0.187831,0.562607 -0.482112,1.205281 -1.873915,4.093716 -1.980211,8.887653 -0.241057,11.450179 0.314724,0.464603 0.602641,0.906758 0.602641,0.964226 0,0.05747 -0.339407,0.120528 -0.723169,0.120528 -0.900895,0 -1.753425,-0.549107 -3.495317,-1.928452 -0.773811,-0.612746 -1.779768,-1.127372 -2.169508,-1.205281 -0.612014,-0.122264 -0.775122,-0.06865 -1.566867,0.723169 -0.73663,0.736514 -0.964225,1.133659 -0.964225,1.807923 0,2.556894 3.03569,4.589327 8.67803,5.785353 7.662507,1.624026 9.551425,3.081934 9.762783,7.111163 0.265355,5.052542 -2.424641,8.86239 -8.316445,11.811763 -0.703229,0.352136 -1.151285,0.488862 -1.446338,0.602641 -0.13075,-0.01157 -0.231221,0.01157 -0.361585,0 -0.05014,-0.156204 -0.120528,-0.518599 -0.120528,-1.205282 0,-2.683555 -1.057756,-5.445945 -2.65162,-6.990635 -0.427846,-0.414694 -1.625762,-1.293412 -2.65162,-1.928451 -1.025821,-0.635001 -2.059393,-1.372671 -2.290036,-1.687395 -0.382219,-0.522263 -0.414192,-0.843119 -0.120528,-1.807923 0.535183,-1.762103 1.172189,-2.74353 2.410564,-3.856902 0.649232,-0.583703 1.302514,-1.073182 1.446338,-1.084754 0.143862,-0.01157 -0.829813,-0.303923 -2.290035,-0.60264 -1.460147,-0.299296 -3.596254,-0.92612 -4.7006,-1.32581 -2.019397,-0.730691 -4.745919,-2.264619 -5.785353,-3.37479 -0.04397,-0.04705 -0.08235,-0.07888 -0.120528,-0.120528 1.489265,-5.932301 5.668681,-10.794505 11.209121,-13.137573 1.159269,-0.490328 2.35433,-0.826727 3.615846,-1.084754 0.628367,-0.128435 1.279643,-0.175104 1.928451,-0.241056 z m 18.079229,9.039614 c 0.452993,0.280012 2.163374,3.980323 2.65162,5.785354 0.630372,2.330301 0.584745,6.363116 0,8.678029 -0.222543,0.881071 -0.507761,1.705329 -0.602641,1.807923 -0.09488,0.102594 -0.438954,-0.488014 -0.843698,-1.205282 -0.404781,-0.717152 -1.697653,-2.241053 -2.772148,-3.374789 -3.101489,-3.272698 -3.589194,-4.981382 -2.290035,-7.593276 0.655172,-1.317094 3.506309,-4.314331 3.856902,-4.097959 z"
     id="path2" />
</svg>
