<?xml version="1.0" encoding="UTF-8" standalone="no"?>
<svg
   xmlns:dc="http://purl.org/dc/elements/1.1/"
   xmlns:cc="http://creativecommons.org/ns#"
   xmlns:rdf="http://www.w3.org/1999/02/22-rdf-syntax-ns#"
   xmlns:svg="http://www.w3.org/2000/svg"
   xmlns="http://www.w3.org/2000/svg"
   xmlns:sodipodi="http://sodipodi.sourceforge.net/DTD/sodipodi-0.dtd"
   xmlns:inkscape="http://www.inkscape.org/namespaces/inkscape"
   width="64"
   height="64"
   version="1.1"
   id="svg4"
   sodipodi:docname="pref_performance.svg"
   inkscape:export-filename="/home/eleuth/.config/smplayer/themes/Gruvbox/pref_performance.png"
   inkscape:export-xdpi="96"
   inkscape:export-ydpi="96"
   inkscape:version="1.0.2 (e86c870879, 2021-01-15, custom)">
  <metadata
     id="metadata10">
    <rdf:RDF>
      <cc:Work
         rdf:about="">
        <dc:format>image/svg+xml</dc:format>
        <dc:type
           rdf:resource="http://purl.org/dc/dcmitype/StillImage" />
        <dc:title></dc:title>
      </cc:Work>
    </rdf:RDF>
  </metadata>
  <defs
     id="defs8" />
  <sodipodi:namedview
     pagecolor="#ffffff"
     bordercolor="#666666"
     borderopacity="1"
     objecttolerance="10"
     gridtolerance="10"
     guidetolerance="10"
     inkscape:pageopacity="0"
     inkscape:pageshadow="2"
     inkscape:window-width="1376"
     inkscape:window-height="470"
     id="namedview6"
     showgrid="true"
     inkscape:zoom="8.0985824"
     inkscape:cx="36.916952"
     inkscape:cy="27.591246"
     inkscape:window-x="544"
     inkscape:window-y="20"
     inkscape:window-maximized="0"
     inkscape:current-layer="svg4">
    <inkscape:grid
       type="xygrid"
       id="grid12" />
  </sodipodi:namedview>
  <path
     style="fill:#ebdbb2;stroke-width:3.99962"
     d="m 35.113818,8.0084194 c -0.206205,-0.022198 -0.411213,0.039437 -0.570259,0.1796708 -0.159043,0.1403465 -0.253543,0.3425111 -0.273409,0.562446 l -0.906165,9.9443578 c -0.04141,0.45758 0.276114,0.869695 0.703058,0.913974 2.473194,0.256815 4.854134,0.971876 7.085255,2.124796 0.10615,0.05492 0.227978,0.07812 0.343727,0.07812 0.08635,0 0.166745,-0.01584 0.249977,-0.04687 0.19438,-0.07276 0.355846,-0.222975 0.445268,-0.421835 l 4.046488,-8.999141 c 0.186463,-0.414087 0.0272,-0.909735 -0.359325,-1.109268 C 42.489426,9.4837133 38.865645,8.3982936 35.113818,8.0084194 Z m -7.452411,0.148423 c -3.733841,0.5428871 -7.31221,1.7794336 -10.639603,3.6715226 -0.378844,0.215451 -0.521048,0.71854 -0.320282,1.124892 l 4.366769,8.827278 c 0.13949,0.281925 0.409184,0.437458 0.687434,0.437457 0.122761,0 0.24348,-0.02783 0.359342,-0.09374 2.19191,-1.246188 4.548478,-2.056242 7.007138,-2.413833 0.424956,-0.06176 0.721615,-0.481735 0.663999,-0.93741 L 28.536323,8.8677117 C 28.478708,8.4121487 28.085318,8.0955255 27.661407,8.1568424 Z m 23.943017,7.1868106 c -0.204861,0.02276 -0.393524,0.133375 -0.523391,0.304658 l -5.882246,7.749256 c -0.129868,0.171396 -0.185262,0.389719 -0.164025,0.609317 0.02119,0.219598 0.121349,0.422997 0.281213,0.562446 1.931334,1.683588 3.553002,3.689878 4.827661,5.975989 0.145546,0.260739 0.407469,0.406211 0.671811,0.406211 0.135627,0 0.273654,-0.03716 0.398401,-0.117176 l 7.999233,-5.124509 c 0.176623,-0.113329 0.30113,-0.293543 0.351526,-0.507763 0.05018,-0.214221 0.02,-0.443083 -0.08591,-0.632752 -1.927365,-3.456519 -4.385033,-6.501064 -7.303993,-9.046007 -0.15986,-0.139227 -0.364561,-0.201753 -0.570252,-0.179671 z m -40.16021,0.828045 c -0.206516,-0.01412 -0.407793,0.05737 -0.562447,0.203105 -2.8271488,2.664103 -5.1745339,5.802745 -6.9758919,9.335041 -0.09871,0.193818 -0.1204236,0.428812 -0.062494,0.640564 0.05793,0.211864 0.1863577,0.386319 0.3671523,0.49214 l 8.1789016,4.796416 c 0.118265,0.06939 0.248964,0.101554 0.374965,0.101554 0.274693,0 0.538562,-0.160801 0.679621,-0.437459 1.190589,-2.334762 2.746583,-4.409003 4.616746,-6.171283 0.154966,-0.145502 0.244717,-0.349762 0.257787,-0.570258 0.01329,-0.220272 -0.05155,-0.443525 -0.187482,-0.609317 l -6.15566,-7.49928 c -0.135935,-0.165792 -0.325516,-0.266987 -0.531198,-0.281223 z m 50.120189,15.162607 -8.897582,2.984089 c -0.409376,0.137431 -0.635962,0.608139 -0.507762,1.046775 0.638269,2.184326 0.960843,4.465231 0.960843,6.780598 0,0.340887 -0.0071,0.687994 -0.02359,1.062398 -0.0096,0.220499 0.06424,0.438402 0.2031,0.601506 0.138747,0.163224 0.333329,0.263335 0.539013,0.273414 l 9.311601,0.460892 c 0.0124,5.65e-4 0.0192,0 0.0312,0 0.412409,0 0.753915,-0.350646 0.773362,-0.796796 0.02416,-0.555446 0.03928,-1.079376 0.03928,-1.601414 -2.08e-4,-3.499003 -0.492309,-6.951605 -1.460795,-10.264639 -0.128418,-0.438861 -0.559711,-0.68459 -0.96867,-0.546823 z m -43.113049,0.960846 c -0.16894,0.02104 -0.331544,0.10135 -0.460893,0.234354 -0.258908,0.265782 -0.317194,0.68458 -0.148422,1.023339 l 6.882152,13.826797 c -0.02532,0.266335 -0.03908,0.541148 -0.03908,0.812422 0,2.085904 0.756834,4.040232 2.132608,5.515094 1.37588,1.474976 3.20218,2.288844 5.147944,2.288844 1.945763,0 3.779981,-0.814093 5.155756,-2.288844 1.375878,-1.474862 2.132607,-3.42919 2.132607,-5.515094 0,-2.085908 -0.756833,-4.048043 -2.132607,-5.52291 -1.373926,-1.472879 -3.205214,-2.28666 -5.147944,-2.28884 h -0.0077 c -0.131348,1.75e-4 -0.268254,3.36e-4 -0.398397,0.0079 L 18.951306,32.412327 c -0.154394,-0.09781 -0.331012,-0.138222 -0.499952,-0.117176 z m -16.3812402,0.2656 C 1.8713339,32.503132 1.655124,32.529013 1.4764207,32.638868 1.2977175,32.748723 1.1711408,32.933534 1.1170803,33.146632 0.37790349,36.069006 0,39.095603 0,42.145767 c 0,0.522038 0.01490401,1.045968 0.03905877,1.60141 0.01934471,0.446258 0.36074598,0.7968 0.77336325,0.796796 0.0121308,0 0.0269294,6.76e-4 0.0390603,0 L 10.155276,44.083081 c 0.20568,-0.01 0.400459,-0.11031 0.53901,-0.273414 0.138759,-0.163104 0.212724,-0.381003 0.203105,-0.601506 -0.0162,-0.374524 -0.02343,-0.721623 -0.02343,-1.062398 0,-2.019989 0.246608,-4.017453 0.734305,-5.944741 0.111994,-0.443677 -0.132947,-0.90283 -0.546819,-1.023336 z"
     id="path2" />
</svg>
