<?xml version="1.0" encoding="UTF-8" standalone="no"?>
<svg
   xmlns:dc="http://purl.org/dc/elements/1.1/"
   xmlns:cc="http://creativecommons.org/ns#"
   xmlns:rdf="http://www.w3.org/1999/02/22-rdf-syntax-ns#"
   xmlns:svg="http://www.w3.org/2000/svg"
   xmlns="http://www.w3.org/2000/svg"
   xmlns:sodipodi="http://sodipodi.sourceforge.net/DTD/sodipodi-0.dtd"
   xmlns:inkscape="http://www.inkscape.org/namespaces/inkscape"
   width="64"
   height="64"
   version="1.1"
   id="svg4"
   sodipodi:docname="pref_advanced.svg"
   inkscape:version="1.0.2 (e86c870879, 2021-01-15, custom)"
   inkscape:export-filename="/home/eleuth/.config/smplayer/themes/Gruvbox/pref_advanced.png"
   inkscape:export-xdpi="96"
   inkscape:export-ydpi="96">
  <metadata
     id="metadata10">
    <rdf:RDF>
      <cc:Work
         rdf:about="">
        <dc:format>image/svg+xml</dc:format>
        <dc:type
           rdf:resource="http://purl.org/dc/dcmitype/StillImage" />
        <dc:title></dc:title>
      </cc:Work>
    </rdf:RDF>
  </metadata>
  <defs
     id="defs8" />
  <sodipodi:namedview
     pagecolor="#ffffff"
     bordercolor="#666666"
     borderopacity="1"
     objecttolerance="10"
     gridtolerance="10"
     guidetolerance="10"
     inkscape:pageopacity="0"
     inkscape:pageshadow="2"
     inkscape:window-width="1376"
     inkscape:window-height="470"
     id="namedview6"
     showgrid="true"
     inkscape:zoom="5.7265625"
     inkscape:cx="57.019044"
     inkscape:cy="7.1470459"
     inkscape:window-x="544"
     inkscape:window-y="20"
     inkscape:window-maximized="0"
     inkscape:current-layer="svg4">
    <inkscape:grid
       type="xygrid"
       id="grid12" />
  </sodipodi:namedview>
  <path
     style="fill:#ebdbb2;stroke-width:4"
     d="m 44.070312,0 c -1.384,0.53288001 -2.754248,1.2173176 -3.906248,2.1484375 -5.509201,4.4564002 -5.577452,11.7938245 -0.15624,16.3906255 1.132,0.9604 2.495188,1.673787 3.867188,2.242187 0.112,0.0452 0.10936,8.21875 0.10936,8.21875 5.96,3 9.400188,7 11.992188,11 V 21.007812 c 1.384,-0.5332 2.668312,-1.287949 3.820312,-2.21875 5.508,-4.456799 5.580248,-11.7938244 0.15624,-16.3906245 -1.132,-0.96032 -2.495188,-1.6739475 -3.867188,-2.2421875 l -0.08593,8.9296876 C 55.979996,10.920738 54.19256,12 51.976559,12 h -3.992188 c -2.216,-0.028 -4.016,-1.235512 -4,-3.0703123 z M 31.984376,32 C 15.990775,32 8,44 8,56 H 1 C 4e-4,56 0,56.628 0,57 v 6.000001 c 0,1 0.55296,1 1,1 h 61.976564 c 0.780001,0.024 1,-0.516 1,-1 V 57 c 0.084,-0.583999 0,-1 -1,-1 h -7 c 0,-12 -7.996588,-24 -23.992188,-24 z m 0,12 c 9.3996,0 12,7.048 12,12 H 19.992188 c 0,-4.792 2.806987,-12 11.992188,-12 z"
     id="path2" />
</svg>
