<?xml version="1.0" encoding="UTF-8" standalone="no"?>
<svg
   xmlns:dc="http://purl.org/dc/elements/1.1/"
   xmlns:cc="http://creativecommons.org/ns#"
   xmlns:rdf="http://www.w3.org/1999/02/22-rdf-syntax-ns#"
   xmlns:svg="http://www.w3.org/2000/svg"
   xmlns="http://www.w3.org/2000/svg"
   xmlns:sodipodi="http://sodipodi.sourceforge.net/DTD/sodipodi-0.dtd"
   xmlns:inkscape="http://www.inkscape.org/namespaces/inkscape"
   width="64"
   height="64"
   version="1.1"
   id="svg6"
   sodipodi:docname="pref_associations.svg"
   inkscape:version="1.0.2 (e86c870879, 2021-01-15, custom)"
   inkscape:export-filename="/home/eleuth/.config/smplayer/themes/Gruvbox/pref_associations.png"
   inkscape:export-xdpi="96"
   inkscape:export-ydpi="96">
  <metadata
     id="metadata12">
    <rdf:RDF>
      <cc:Work
         rdf:about="">
        <dc:format>image/svg+xml</dc:format>
        <dc:type
           rdf:resource="http://purl.org/dc/dcmitype/StillImage" />
        <dc:title></dc:title>
      </cc:Work>
    </rdf:RDF>
  </metadata>
  <defs
     id="defs10" />
  <sodipodi:namedview
     pagecolor="#ffffff"
     bordercolor="#666666"
     borderopacity="1"
     objecttolerance="10"
     gridtolerance="10"
     guidetolerance="10"
     inkscape:pageopacity="0"
     inkscape:pageshadow="2"
     inkscape:window-width="1376"
     inkscape:window-height="470"
     id="namedview8"
     showgrid="true"
     inkscape:zoom="11.453125"
     inkscape:cx="33.434548"
     inkscape:cy="30.927898"
     inkscape:window-x="544"
     inkscape:window-y="20"
     inkscape:window-maximized="0"
     inkscape:current-layer="svg6">
    <inkscape:grid
       type="xygrid"
       id="grid14" />
  </sodipodi:namedview>
  <path
     style="fill:#ebdbb2;stroke-width:3.89599"
     d="m 30.845001,22.040747 -0.428557,5.130991 A 15.3057,15.3057 0 0 0 25.93608,29.75866 L 21.260918,27.565229 16.390958,36 l 4.246605,2.941456 a 15.3057,15.3057 0 0 0 -0.23376,2.57913 15.3057,15.3057 0 0 0 0.23376,2.594715 l -4.246606,2.92977 4.869961,8.43477 4.675162,-2.189534 a 15.3057,15.3057 0 0 0 4.480364,2.571339 l 0.428557,5.138781 h 9.739918 l 0.428557,-5.130991 a 15.3057,15.3057 0 0 0 4.480363,-2.586921 l 4.6362,2.197326 L 55,47.045071 50.792356,44.103614 a 15.3057,15.3057 0 0 0 0.233757,-2.583028 15.3057,15.3057 0 0 0 -0.233757,-2.590819 L 55,36 l -4.869961,-8.434771 -4.6362,2.189534 a 15.3057,15.3057 0 0 0 -4.480363,-2.571338 l -0.428557,-5.142678 z m 4.869957,13.916398 a 5.5657797,5.5657797 0 0 1 5.571234,5.563441 5.5657797,5.5657797 0 0 1 -5.571234,5.567339 5.5657797,5.5657797 0 0 1 -5.571231,-5.567339 5.5657797,5.5657797 0 0 1 5.571231,-5.563441 z"
     id="path2" />
  <path
     style="fill:#ebdbb2;stroke-width:3.89599"
     d="m 28.559106,23.319758 -1.32463,-2.797303 a 9.183186,9.183186 0 0 0 1.558387,-2.684323 l 3.077814,-0.257135 V 11.73315 L 28.792863,11.476014 A 9.183186,9.183186 0 0 0 28.130549,10.065676 9.183186,9.183186 0 0 0 27.234476,8.7839024 L 28.559106,5.994388 23.494348,3.0724135 21.741164,5.6086877 a 9.183186,9.183186 0 0 0 -3.116775,0.00783 l -1.753187,-2.5440713 -5.06476,2.9219756 1.324629,2.7934087 a 9.183186,9.183186 0 0 0 -1.558387,2.6882183 l -3.0778137,0.257134 v 5.843952 l 3.0778137,0.257133 a 9.183186,9.183186 0 0 0 0.662315,1.414237 9.183186,9.183186 0 0 0 0.896072,1.277879 l -1.324629,2.789512 5.06476,2.921978 1.753187,-2.532381 a 9.183186,9.183186 0 0 0 3.116773,-0.008 l 1.753186,2.544066 z M 21.85804,17.549829 a 3.3393901,3.3393901 0 0 1 -4.558281,-1.223332 3.3393901,3.3393901 0 0 1 1.207748,-4.56218 3.3393901,3.3393901 0 0 1 4.558281,1.223332 3.3393901,3.3393901 0 0 1 -1.207748,4.56218 z"
     id="path4" />
</svg>
