<?xml version="1.0" encoding="UTF-8" standalone="no"?>
<svg
   xmlns:dc="http://purl.org/dc/elements/1.1/"
   xmlns:cc="http://creativecommons.org/ns#"
   xmlns:rdf="http://www.w3.org/1999/02/22-rdf-syntax-ns#"
   xmlns:svg="http://www.w3.org/2000/svg"
   xmlns="http://www.w3.org/2000/svg"
   xmlns:sodipodi="http://sodipodi.sourceforge.net/DTD/sodipodi-0.dtd"
   xmlns:inkscape="http://www.inkscape.org/namespaces/inkscape"
   width="64"
   height="64"
   version="1.1"
   id="svg4"
   sodipodi:docname="recents.svg"
   inkscape:export-filename="/home/eleuth/.config/smplayer/themes/Gruvbox/recents.png"
   inkscape:export-xdpi="96"
   inkscape:export-ydpi="96"
   inkscape:version="1.0.2 (e86c870879, 2021-01-15, custom)">
  <metadata
     id="metadata10">
    <rdf:RDF>
      <cc:Work
         rdf:about="">
        <dc:format>image/svg+xml</dc:format>
        <dc:type
           rdf:resource="http://purl.org/dc/dcmitype/StillImage" />
        <dc:title></dc:title>
      </cc:Work>
    </rdf:RDF>
  </metadata>
  <defs
     id="defs8" />
  <sodipodi:namedview
     pagecolor="#ffffff"
     bordercolor="#666666"
     borderopacity="1"
     objecttolerance="10"
     gridtolerance="10"
     guidetolerance="10"
     inkscape:pageopacity="0"
     inkscape:pageshadow="2"
     inkscape:window-width="1376"
     inkscape:window-height="470"
     id="namedview6"
     showgrid="true"
     inkscape:zoom="5.7265625"
     inkscape:cx="45.962688"
     inkscape:cy="11.899794"
     inkscape:window-x="544"
     inkscape:window-y="20"
     inkscape:window-maximized="0"
     inkscape:current-layer="svg4">
    <inkscape:grid
       type="xygrid"
       id="grid12" />
  </sodipodi:namedview>
  <path
     style="fill:#ebdbb2;stroke-width:3.85763"
     d="m 32.005897,5 c -6.910757,0 -13.819465,2.638356 -19.092271,7.911161 -10.545612,10.545611 -10.545612,27.638929 0,38.184541 10.545612,10.545611 27.63893,10.545611 38.184541,0 10.545611,-10.545612 10.545611,-27.63893 0,-38.184541 C 45.825361,7.638356 38.916653,5 32.005897,5 Z m -0.278792,7.715266 a 19.288165,19.288165 0 0 1 13.916111,5.650829 19.288165,19.288165 0 0 1 0,27.27467 19.288165,19.288165 0 0 1 -27.274673,0 19.288165,19.288165 0 0 1 0,-27.27467 19.288165,19.288165 0 0 1 13.358562,-5.650829 z m -3.593928,3.857633 v 0.512342 16.515493 l 6.585118,6.585099 2.373346,2.373347 0.354131,0.354131 2.72747,-2.727466 2.727467,-2.727466 -0.361653,-0.361654 -2.365814,-2.365828 -4.324772,-4.324765 V 17.085241 16.572899 Z"
     id="path2" />
</svg>
