<?xml version="1.0" encoding="UTF-8" standalone="no"?>
<svg
   xmlns:dc="http://purl.org/dc/elements/1.1/"
   xmlns:cc="http://creativecommons.org/ns#"
   xmlns:rdf="http://www.w3.org/1999/02/22-rdf-syntax-ns#"
   xmlns:svg="http://www.w3.org/2000/svg"
   xmlns="http://www.w3.org/2000/svg"
   xmlns:sodipodi="http://sodipodi.sourceforge.net/DTD/sodipodi-0.dtd"
   xmlns:inkscape="http://www.inkscape.org/namespaces/inkscape"
   width="64"
   height="64"
   version="1.1"
   id="svg4"
   sodipodi:docname="repeat.svg"
   inkscape:export-filename="/home/eleuth/.config/smplayer/themes/Gruvbox/repeat.png"
   inkscape:export-xdpi="96"
   inkscape:export-ydpi="96"
   inkscape:version="1.0.2 (e86c870879, 2021-01-15, custom)">
  <metadata
     id="metadata10">
    <rdf:RDF>
      <cc:Work
         rdf:about="">
        <dc:format>image/svg+xml</dc:format>
        <dc:type
           rdf:resource="http://purl.org/dc/dcmitype/StillImage" />
        <dc:title></dc:title>
      </cc:Work>
    </rdf:RDF>
  </metadata>
  <defs
     id="defs8" />
  <sodipodi:namedview
     pagecolor="#ffffff"
     bordercolor="#666666"
     borderopacity="1"
     objecttolerance="10"
     gridtolerance="10"
     guidetolerance="10"
     inkscape:pageopacity="0"
     inkscape:pageshadow="2"
     inkscape:window-width="1376"
     inkscape:window-height="470"
     id="namedview6"
     showgrid="true"
     inkscape:zoom="8.0985824"
     inkscape:cx="45.432107"
     inkscape:cy="32.322933"
     inkscape:window-x="544"
     inkscape:window-y="20"
     inkscape:window-maximized="0"
     inkscape:current-layer="svg4">
    <inkscape:grid
       type="xygrid"
       id="grid12" />
  </sodipodi:namedview>
  <path
     style="fill:#ebdbb2;stroke-width:3.85848"
     d="M 20.435949,8.849076 V 16.56605 H 12.45521 c -4.1278089,0 -7.45321,3.623579 -7.45321,8.123926 v 22.337023 c 0,4.500153 3.325594,8.123925 7.45321,8.123925 h 39.1124 c 4.12781,0 7.453212,-3.623579 7.453212,-8.123925 V 24.689976 c 0,-4.500154 -3.325595,-8.123926 -7.453212,-8.123926 h -7.980737 v 7.716975 h 7.709439 c -0.0077,0.03472 0.0077,0.101482 0.0077,0.406951 v 22.337023 c 0,0.305206 -0.01543,0.372729 -0.0077,0.40695 H 12.734046 c 0.0039,-0.03472 -0.01508,-0.101482 -0.01508,-0.40695 V 24.689976 c 0,-0.305592 0.01895,-0.372729 0.01508,-0.406951 h 7.701903 V 32 l 15.43395,-11.575462 z"
     id="path2" />
</svg>
