<?xml version="1.0" encoding="UTF-8" standalone="no"?>
<svg
   xmlns:dc="http://purl.org/dc/elements/1.1/"
   xmlns:cc="http://creativecommons.org/ns#"
   xmlns:rdf="http://www.w3.org/1999/02/22-rdf-syntax-ns#"
   xmlns:svg="http://www.w3.org/2000/svg"
   xmlns="http://www.w3.org/2000/svg"
   xmlns:sodipodi="http://sodipodi.sourceforge.net/DTD/sodipodi-0.dtd"
   xmlns:inkscape="http://www.inkscape.org/namespaces/inkscape"
   width="64"
   height="64"
   version="1.1"
   id="svg4"
   sodipodi:docname="resizer_window.svg"
   inkscape:version="1.0.2 (e86c870879, 2021-01-15, custom)"
   inkscape:export-filename="/home/eleuth/.config/smplayer/themes/Gruvbox/resizer_window.png"
   inkscape:export-xdpi="96"
   inkscape:export-ydpi="96">
  <metadata
     id="metadata10">
    <rdf:RDF>
      <cc:Work
         rdf:about="">
        <dc:format>image/svg+xml</dc:format>
        <dc:type
           rdf:resource="http://purl.org/dc/dcmitype/StillImage" />
        <dc:title></dc:title>
      </cc:Work>
    </rdf:RDF>
  </metadata>
  <defs
     id="defs8" />
  <sodipodi:namedview
     pagecolor="#ffffff"
     bordercolor="#666666"
     borderopacity="1"
     objecttolerance="10"
     gridtolerance="10"
     guidetolerance="10"
     inkscape:pageopacity="0"
     inkscape:pageshadow="2"
     inkscape:window-width="1376"
     inkscape:window-height="470"
     id="namedview6"
     showgrid="true"
     inkscape:zoom="4"
     inkscape:cx="50.453475"
     inkscape:cy="26.469829"
     inkscape:window-x="544"
     inkscape:window-y="20"
     inkscape:window-maximized="0"
     inkscape:current-layer="svg4">
    <inkscape:grid
       type="xygrid"
       id="grid12" />
  </sodipodi:namedview>
  <path
     style="fill:#ebdbb2;stroke-width:3.85735"
     d="M 6.7027967,5.0000641 C 5.7105171,5.1890703 4.9949945,6.0665961 5.0152456,7.0757509 v 2.0756867 c -0.010029,0.7492725 0.381376,1.4445434 1.0294066,1.8259294 0.648019,0.374637 1.4411668,0.374637 2.092561,0 C 8.7852323,10.595976 9.1767453,9.8973345 9.1666198,9.1514376 9.9158904,9.1615828 10.611161,8.77005 10.99255,8.1220318 c 0.371269,-0.648019 0.371269,-1.4445424 0,-2.0925619 C 10.611173,5.3814506 9.9125151,4.9933138 9.1666198,5.0000641 H 6.6994216 Z m 10.7058183,0 -1.623423,0.8437753 -0.324017,1.815804 1.23191,1.3635401 0.715522,0.1282568 h 4.347127 L 23.443285,8.3110376 23.767302,6.4918583 22.46789,5.1316934 21.755742,5.0000653 Z m 12.521629,0 -1.687556,0.8437753 -0.324017,1.815804 1.299413,1.3635401 0.712144,0.1282568 h 4.350505 L 35.900782,8.3110376 36.224798,6.4918583 34.992889,5.1316934 34.280741,5.0000653 Z m 12.525001,0 -1.687555,0.8437753 -0.324018,1.815804 1.296042,1.3635401 0.715523,0.1282568 h 4.282999 L 48.425775,8.3110387 48.749792,6.4918595 47.453758,5.1316946 46.734864,5.0000626 Z m 12.00522,0 c -1.144163,0.1046307 -1.987935,1.1272838 -1.883309,2.2714422 0.104612,1.1407844 1.127284,1.9879343 2.271443,1.8799313 -0.0066,0.7492725 0.381414,1.4445434 1.029414,1.8259294 0.651386,0.374637 1.444534,0.374637 2.092557,0 0.648015,-0.381391 1.039529,-1.0800325 1.032782,-1.8259294 V 7.0757509 c 0,-1.1407841 -0.934902,-2.0756868 -2.079065,-2.0756868 z m -4.802769,8.5018779 -12.849,1.684177 c -0.624392,0 -0.671644,0.43201 -0.256513,0.847146 L 40.895935,20.37702 27.139027,34.069806 H 9.1666198 V 29.722674 L 8.3228443,28.099252 6.5070401,27.775235 5.1434986,29.010531 5.0152417,29.722674 v 4.347132 l 0.3881341,0.843775 C 5.1468622,35.274706 5.0118666,35.706728 5.0152417,36.14549 v 18.303174 c -0.016972,0.128256 -0.016972,0.256514 0,0.388146 v 2.075681 c 0.00694,0.21605 0.047252,0.435394 0.1282569,0.648023 0.030473,0.114756 0.074253,0.222761 0.1282568,0.324016 0.074254,0.138403 0.1620086,0.270054 0.2598695,0.388146 0.033559,0.03395 0.033559,0.09786 0.064109,0.131652 0.1248624,0.09786 0.2531191,0.18901 0.3915131,0.259908 0.02353,0.01697 0.040502,0.04726 0.064109,0.06414 l 0.064109,0.06415 c 0.043858,0.027 0.08436,0.05065 0.1316127,0.0675 h 0.064109 c 0.016972,0.0066 0.047252,-0.01003 0.064109,0 0.18901,0.07089 0.3847705,0.114756 0.5838907,0.128257 H 27.854434 c 0.405015,0 0.739149,-0.09786 1.039533,-0.259908 l 0.131612,0.131651 0.712147,0.128257 h 4.347135 l 1.687552,-0.843895 0.324016,-1.815804 -1.299412,-1.363542 -0.712148,-0.128257 H 29.930124 V 36.86101 l 13.692782,-13.75691 4.347123,4.347129 c 0.415132,0.415135 0.843772,0.155259 0.843772,-0.259869 l 1.687551,-12.845634 c 0,-0.624393 -0.432016,-1.056409 -0.843772,-0.843776 z M 6.5070401,15.250243 5.1434986,16.549656 5.0152417,17.265178 v 4.283003 l 0.8404004,1.687551 1.8191793,0.324017 1.3635416,-1.296038 0.1282568,-0.718898 V 17.265186 L 8.3228443,15.577635 Z m 49.8333529,0.19576 -1.363542,1.235289 -0.128256,0.712144 v 4.34713 l 0.843779,1.687552 1.815808,0.324016 1.363534,-1.296041 0.131651,-0.715519 v -4.34376 l -0.843798,-1.623423 z m 0,12.460875 -1.363542,1.296035 -0.128256,0.715518 v 4.347131 l 0.843779,1.623423 1.815808,0.324016 1.363534,-1.235288 0.131651,-0.712143 v -4.347127 l -0.843779,-1.687551 z m 0,12.521618 -1.363542,1.299422 -0.128256,0.712143 v 4.283003 l 0.843779,1.687551 1.815808,0.327372 1.363534,-1.299413 0.131651,-0.715522 v -4.282975 l -0.843794,-1.687551 z m 0.391502,12.265121 c -0.09111,0.01697 -0.178866,0.0439 -0.259908,0.06414 -0.968654,0.219367 -1.643675,1.08678 -1.623423,2.079064 -0.749275,-0.01003 -1.444543,0.381414 -1.82593,1.029406 -0.37127,0.648019 -0.37127,1.444543 0,2.092565 0.38477,0.648015 1.080027,1.036153 1.82593,1.029403 h 2.075681 c 1.144163,0 2.079064,-0.934901 2.079064,-2.075685 v -2.075686 c 0.02044,-0.597391 -0.216012,-1.177911 -0.651386,-1.5863 -0.435391,-0.408388 -1.026036,-0.614267 -1.620052,-0.556889 z m -14.469055,2.143189 -1.690923,0.8404 -0.324016,1.81918 1.29942,1.363537 0.712147,0.128256 h 4.347127 L 48.23001,58.144404 48.554028,56.3286 47.32213,54.965059 46.606603,54.836802 Z"
     id="path2" />
</svg>
