<?xml version="1.0" encoding="UTF-8" standalone="no"?>
<svg
   xmlns:dc="http://purl.org/dc/elements/1.1/"
   xmlns:cc="http://creativecommons.org/ns#"
   xmlns:rdf="http://www.w3.org/1999/02/22-rdf-syntax-ns#"
   xmlns:svg="http://www.w3.org/2000/svg"
   xmlns="http://www.w3.org/2000/svg"
   xmlns:sodipodi="http://sodipodi.sourceforge.net/DTD/sodipodi-0.dtd"
   xmlns:inkscape="http://www.inkscape.org/namespaces/inkscape"
   width="64"
   height="64"
   version="1.1"
   id="svg4"
   sodipodi:docname="shutdown.svg"
   inkscape:export-filename="/home/eleuth/.config/smplayer/themes/Gruvbox/shutdown.png"
   inkscape:export-xdpi="96"
   inkscape:export-ydpi="96"
   inkscape:version="1.0.2 (e86c870879, 2021-01-15, custom)">
  <metadata
     id="metadata10">
    <rdf:RDF>
      <cc:Work
         rdf:about="">
        <dc:format>image/svg+xml</dc:format>
        <dc:type
           rdf:resource="http://purl.org/dc/dcmitype/StillImage" />
        <dc:title></dc:title>
      </cc:Work>
    </rdf:RDF>
  </metadata>
  <defs
     id="defs8" />
  <sodipodi:namedview
     pagecolor="#ffffff"
     bordercolor="#666666"
     borderopacity="1"
     objecttolerance="10"
     gridtolerance="10"
     guidetolerance="10"
     inkscape:pageopacity="0"
     inkscape:pageshadow="2"
     inkscape:window-width="1376"
     inkscape:window-height="638"
     id="namedview6"
     showgrid="true"
     inkscape:zoom="8"
     inkscape:cx="44.842862"
     inkscape:cy="23.898483"
     inkscape:window-x="544"
     inkscape:window-y="20"
     inkscape:window-maximized="0"
     inkscape:current-layer="svg4">
    <inkscape:grid
       type="xygrid"
       id="grid12" />
  </sodipodi:namedview>
  <path
     style="fill:#ebdbb2;stroke-width:4.00065"
     d="M 0.56150791,32.195001 C 0.50949939,35.55155 1.0015798,38.888093 2.0177457,42.084617 6.1744247,55.142749 18.300406,64.004196 32.002644,64.000196 45.704882,64.004196 57.834861,55.142749 61.991541,42.084617 66.108213,29.022483 61.259421,14.80016 50.033587,6.9668809 l -5.144839,7.3652021 c 8.033311,5.572911 11.493877,15.726569 8.537394,25.044091 C 50.469659,48.705698 41.792241,55.038733 32.002644,55.014729 22.209043,55.042733 13.535627,48.7097 10.575143,39.376174 7.6186606,30.058652 11.083226,19.904994 19.112538,14.332083 L 13.971697,6.9668809 C 5.7103488,12.731823 0.7175334,22.121356 0.56150791,32.195001 Z M 27.513909,1.1139249 V 32.555062 h 8.981469 V -0.01025873 Z"
     id="path2" />
</svg>
