<?xml version="1.0" encoding="UTF-8" standalone="no"?>
<svg
   xmlns:dc="http://purl.org/dc/elements/1.1/"
   xmlns:cc="http://creativecommons.org/ns#"
   xmlns:rdf="http://www.w3.org/1999/02/22-rdf-syntax-ns#"
   xmlns:svg="http://www.w3.org/2000/svg"
   xmlns="http://www.w3.org/2000/svg"
   xmlns:sodipodi="http://sodipodi.sourceforge.net/DTD/sodipodi-0.dtd"
   xmlns:inkscape="http://www.inkscape.org/namespaces/inkscape"
   style="isolation:isolate"
   width="64"
   height="64"
   viewBox="0 0 64 64"
   version="1.1"
   id="svg4"
   sodipodi:docname="translators.svg"
   inkscape:version="1.0.2 (e86c870879, 2021-01-15, custom)"
   inkscape:export-filename="/home/eleuth/.config/smplayer/themes/Gruvbox/translators.png"
   inkscape:export-xdpi="96"
   inkscape:export-ydpi="96">
  <metadata
     id="metadata10">
    <rdf:RDF>
      <cc:Work
         rdf:about="">
        <dc:format>image/svg+xml</dc:format>
        <dc:type
           rdf:resource="http://purl.org/dc/dcmitype/StillImage" />
        <dc:title></dc:title>
      </cc:Work>
    </rdf:RDF>
  </metadata>
  <defs
     id="defs8" />
  <sodipodi:namedview
     pagecolor="#ffffff"
     bordercolor="#666666"
     borderopacity="1"
     objecttolerance="10"
     gridtolerance="10"
     guidetolerance="10"
     inkscape:pageopacity="0"
     inkscape:pageshadow="2"
     inkscape:window-width="1376"
     inkscape:window-height="638"
     id="namedview6"
     showgrid="true"
     inkscape:zoom="11.453125"
     inkscape:cx="34.469339"
     inkscape:cy="29.63412"
     inkscape:window-x="544"
     inkscape:window-y="20"
     inkscape:window-maximized="0"
     inkscape:current-layer="svg4">
    <inkscape:grid
       type="xygrid"
       id="grid12" />
  </sodipodi:namedview>
  <path
     fill="#ebdbb2"
     d="M 4.1557063,0 C 1.8598685,0.00399972 0.00399972,1.8598685 0,4.1557063 V 35.22551 c 0,2.291838 1.8638682,4.155706 4.1557063,4.155706 H 9.847304 v 7.383479 l 7.383478,7.383478 h 7.383478 v 5.695597 c 0,2.287839 1.863868,4.151707 4.155706,4.151707 H 59.83977 c 2.295838,-0.004 4.151707,-1.859869 4.155707,-4.155707 V 28.769966 c -0.004,-2.295837 -1.859869,-4.151707 -4.155707,-4.155706 H 39.381216 V 4.1517065 C 39.377216,1.8598685 37.521348,0.00399972 35.22551,0 Z M 4.923652,4.923652 H 34.457564 V 24.61426 h -5.691597 c -0.951933,0 -1.835871,0.307978 -2.535821,0.84794 -1.007929,-0.591958 -1.935863,-1.127921 -2.771804,-1.69588 2.227842,-2.295838 4.09571,-4.911653 5.539608,-7.767451 0.211985,-0.375973 0.315978,-0.799943 0.307978,-1.231913 h 2.69181 V 9.847304 H 22.150434 V 7.3834781 H 17.230782 V 9.847304 H 7.3834781 v 4.919652 h 5.2316309 c -0.655955,0.239983 -1.179917,0.739948 -1.443899,1.387902 -0.263981,0.643955 -0.243982,1.367903 0.056,1.995859 0,0 0.819943,1.731877 2.771804,3.923722 0.511964,0.56796 1.095923,1.203915 1.771875,1.84787 -3.491753,2.54782 -6.4635429,3.691739 -6.4635429,3.691739 -0.9319341,0.203986 -1.655883,0.927935 -1.8678679,1.855869 -0.2079854,0.923934 0.1279909,1.887866 0.8719383,2.475825 0.7439475,0.587958 1.7598755,0.69995 2.6078155,0.28398 0,0 4.135708,-1.539891 8.771381,-5.155636 1.279909,0.931934 2.651812,1.903865 4.307694,2.847799 0.191987,0.103993 0.399972,0.179987 0.615957,0.227984 v 4.307695 H 14.766956 L 13.539043,33.229651 12.30713,34.457564 H 4.923652 Z m 9.383337,9.843304 h 9.691314 c -1.207914,2.171846 -2.707808,4.163706 -4.463684,5.923582 -0.643954,-0.583959 -1.25991,-1.199916 -1.843869,-1.847869 -1.603887,-1.795874 -1.999859,-2.687811 -1.999859,-2.687811 -0.247982,-0.635955 -0.751947,-1.13592 -1.383902,-1.387902 z m 27.458059,18.002727 h 5.151636 l 8.463401,22.918381 H 50.072461 L 48.38058,50.764412 h -8.151424 l -1.69588,4.923652 h -5.303625 z m 2.463825,6.303555 -2.767804,8.07543 h 5.687599 l -2.767805,-8.07543 z m -26.998091,0.307978 h 7.383478 v 7.383479 h -7.383478 z"
     id="path2"
     style="stroke-width:3.99972" />
</svg>
