<?xml version="1.0" encoding="UTF-8" standalone="no"?>
<svg
   xmlns:dc="http://purl.org/dc/elements/1.1/"
   xmlns:cc="http://creativecommons.org/ns#"
   xmlns:rdf="http://www.w3.org/1999/02/22-rdf-syntax-ns#"
   xmlns:svg="http://www.w3.org/2000/svg"
   xmlns="http://www.w3.org/2000/svg"
   xmlns:sodipodi="http://sodipodi.sourceforge.net/DTD/sodipodi-0.dtd"
   xmlns:inkscape="http://www.inkscape.org/namespaces/inkscape"
   width="64"
   height="64"
   version="1.1"
   id="svg4"
   sodipodi:docname="open_tv.svg"
   inkscape:export-filename="/home/eleuth/.config/smplayer/themes/Gruvbox/open_tv.png"
   inkscape:export-xdpi="96"
   inkscape:export-ydpi="96"
   inkscape:version="1.0.2 (e86c870879, 2021-01-15, custom)">
  <metadata
     id="metadata10">
    <rdf:RDF>
      <cc:Work
         rdf:about="">
        <dc:format>image/svg+xml</dc:format>
        <dc:type
           rdf:resource="http://purl.org/dc/dcmitype/StillImage" />
        <dc:title></dc:title>
      </cc:Work>
    </rdf:RDF>
  </metadata>
  <defs
     id="defs8" />
  <sodipodi:namedview
     pagecolor="#ffffff"
     bordercolor="#666666"
     borderopacity="1"
     objecttolerance="10"
     gridtolerance="10"
     guidetolerance="10"
     inkscape:pageopacity="0"
     inkscape:pageshadow="2"
     inkscape:window-width="1376"
     inkscape:window-height="470"
     id="namedview6"
     showgrid="true"
     inkscape:zoom="11.453125"
     inkscape:cx="44.441605"
     inkscape:cy="31.215701"
     inkscape:window-x="544"
     inkscape:window-y="20"
     inkscape:window-maximized="0"
     inkscape:current-layer="svg4">
    <inkscape:grid
       type="xygrid"
       id="grid12" />
  </sodipodi:namedview>
  <path
     style="fill:#ebdbb2;stroke-width:4"
     d="m 7.3906769,7.831908 c -4.0759999,0 -7.37999986,3.606331 -7.37999986,8.055303 v 32.225577 c 0,4.448976 3.30399996,8.055304 7.37999986,8.055304 H 56.598681 c 4.076,0 7.38,-3.606328 7.38,-8.055304 V 15.887211 c 0,-4.448972 -3.304,-8.055303 -7.38,-8.055303 -49.2080041,0 -20.069425,0 -49.2080041,0 z M 25.842677,13.20211 c 18.316004,0 20.912004,0.05239 20.912004,18.795707 0,18.747679 -2.776,18.800071 -20.912004,18.800071 -18.2200001,0 -20.9120001,-0.20084 -20.9120001,-18.800071 0,-18.599236 2.692,-18.795707 20.9120001,-18.795707 z m 29.524004,7.889394 c 2.132,0 3.844,1.86429 3.844,4.195743 0,2.327088 -1.712,4.195743 -3.844,4.195743 -1.02,0.0044 -2,-0.436601 -2.724,-1.222484 -0.72,-0.79025 -1.124,-1.859924 -1.12,-2.973259 0,-2.331453 1.712,-4.200109 3.844,-4.200109 z m 0,10.740404 c 2.132,0 3.844,1.868655 3.844,4.195743 0,2.327087 -1.712,4.195745 -3.844,4.195745 -1.02,0.0044 -2,-0.436604 -2.724,-1.222487 -0.72,-0.790249 -1.124,-1.859923 -1.12,-2.973258 0,-2.327088 1.712,-4.195743 3.844,-4.195743 z"
     id="path2" />
</svg>
